<svg width="106" height="49" viewBox="0 0 106 49" fill="none" xmlns="http://www.w3.org/2000/svg">
<path opacity="0.28" d="M104.059 48.4352H1.368C0.608 48.4352 0 47.8272 0 47.0672C0 46.3072 0.608 45.6992 1.368 45.6992H104.074C104.834 45.6992 105.442 46.3072 105.442 47.0672C105.427 47.8272 104.819 48.4352 104.059 48.4352Z" fill="#848484"/>
<path d="M99.6056 34.3917C99.6056 28.7373 95.3192 24.0861 89.7712 23.5541V22.2773H86.4424V46.7037H89.7712V45.2293C95.304 44.6973 99.6056 40.0461 99.6056 34.3917ZM89.756 41.7181V27.0805C93.3128 27.5973 96.1096 30.6829 96.1096 34.4069C96.1096 38.1157 93.3128 41.2013 89.756 41.7181Z" fill="#E61158"/>
<path opacity="0.29" d="M89.756 23.5541V22.2773H86.4272V46.7037H89.756V45.2293C95.304 44.6973 99.5905 40.0613 99.5905 34.3917C99.6057 28.7373 95.304 24.0861 89.756 23.5541ZM89.756 44.1045V45.3661H86.64V23.3869H89.756V24.6789C94.6352 25.1501 98.572 29.3149 98.572 34.3917C98.5872 39.4685 94.6504 43.6333 89.756 44.1045Z" fill="#E61158"/>
<path d="M99.6056 34.3917C99.6056 28.7373 95.3192 24.0861 89.7712 23.5541V22.2773H86.4424V46.7037H89.7712V45.2293C95.304 44.6973 99.6056 40.0461 99.6056 34.3917ZM89.756 41.7181V27.0805C93.3128 27.5973 96.1096 30.6829 96.1096 34.4069C96.1096 38.1157 93.3128 41.2013 89.756 41.7181Z" stroke="#444E59" stroke-width="0.608" stroke-miterlimit="10" stroke-linecap="round" stroke-linejoin="round"/>
<path d="M87.7648 44.25H86.4272" stroke="#444E59" stroke-width="0.456" stroke-miterlimit="10" stroke-linecap="round" stroke-linejoin="round"/>
<path d="M87.7648 41.8242H86.4272" stroke="#444E59" stroke-width="0.456" stroke-miterlimit="10" stroke-linecap="round" stroke-linejoin="round"/>
<path d="M87.7648 39.3672H86.4272" stroke="#444E59" stroke-width="0.456" stroke-miterlimit="10" stroke-linecap="round" stroke-linejoin="round"/>
<path d="M87.7648 36.9219H86.4272" stroke="#444E59" stroke-width="0.456" stroke-miterlimit="10" stroke-linecap="round" stroke-linejoin="round"/>
<path d="M87.7648 34.4961H86.4272" stroke="#444E59" stroke-width="0.456" stroke-miterlimit="10" stroke-linecap="round" stroke-linejoin="round"/>
<path d="M87.7648 32.043H86.4272" stroke="#444E59" stroke-width="0.456" stroke-miterlimit="10" stroke-linecap="round" stroke-linejoin="round"/>
<path d="M87.7648 29.5977H86.4272" stroke="#444E59" stroke-width="0.456" stroke-miterlimit="10" stroke-linecap="round" stroke-linejoin="round"/>
<path d="M87.7648 27.1641H86.4272" stroke="#444E59" stroke-width="0.456" stroke-miterlimit="10" stroke-linecap="round" stroke-linejoin="round"/>
<path d="M87.7648 24.7188H86.4272" stroke="#444E59" stroke-width="0.456" stroke-miterlimit="10" stroke-linecap="round" stroke-linejoin="round"/>
<path d="M84.0864 9.91406H79.0552V46.6373H84.0864V9.91406Z" fill="#E61158"/>
<path d="M84.0864 9.91406H79.0552V46.6373H84.0864V9.91406Z" fill="#E61158"/>
<path opacity="0.29" d="M84.0864 9.91406H81.8976V46.6373H84.0864V9.91406Z" fill="#E61158"/>
<path d="M84.0864 9.91406H79.0552V46.6373H84.0864V9.91406Z" stroke="#444E59" stroke-width="0.608" stroke-miterlimit="10" stroke-linecap="round" stroke-linejoin="round"/>
<path d="M80.8032 42.9297H79.0552" stroke="#444E59" stroke-width="0.456" stroke-miterlimit="10" stroke-linecap="round" stroke-linejoin="round"/>
<path d="M80.1344 44.6758H79.0552" stroke="#444E59" stroke-width="0.456" stroke-miterlimit="10" stroke-linecap="round" stroke-linejoin="round"/>
<path d="M80.8032 39.4336H79.0552" stroke="#444E59" stroke-width="0.456" stroke-miterlimit="10" stroke-linecap="round" stroke-linejoin="round"/>
<path d="M80.1344 41.1875H79.0552" stroke="#444E59" stroke-width="0.456" stroke-miterlimit="10" stroke-linecap="round" stroke-linejoin="round"/>
<path d="M80.8032 35.9375H79.0552" stroke="#444E59" stroke-width="0.456" stroke-miterlimit="10" stroke-linecap="round" stroke-linejoin="round"/>
<path d="M80.1344 37.6875H79.0552" stroke="#444E59" stroke-width="0.456" stroke-miterlimit="10" stroke-linecap="round" stroke-linejoin="round"/>
<path d="M80.8032 32.4336H79.0552" stroke="#444E59" stroke-width="0.456" stroke-miterlimit="10" stroke-linecap="round" stroke-linejoin="round"/>
<path d="M80.1344 34.1758H79.0552" stroke="#444E59" stroke-width="0.456" stroke-miterlimit="10" stroke-linecap="round" stroke-linejoin="round"/>
<path d="M80.8032 28.9297H79.0552" stroke="#444E59" stroke-width="0.456" stroke-miterlimit="10" stroke-linecap="round" stroke-linejoin="round"/>
<path d="M80.1344 30.6875H79.0552" stroke="#444E59" stroke-width="0.456" stroke-miterlimit="10" stroke-linecap="round" stroke-linejoin="round"/>
<path d="M80.8032 25.4297H79.0552" stroke="#444E59" stroke-width="0.456" stroke-miterlimit="10" stroke-linecap="round" stroke-linejoin="round"/>
<path d="M80.1344 27.1836H79.0552" stroke="#444E59" stroke-width="0.456" stroke-miterlimit="10" stroke-linecap="round" stroke-linejoin="round"/>
<path d="M80.8032 21.9453H79.0552" stroke="#444E59" stroke-width="0.456" stroke-miterlimit="10" stroke-linecap="round" stroke-linejoin="round"/>
<path d="M80.1344 23.6914H79.0552" stroke="#444E59" stroke-width="0.456" stroke-miterlimit="10" stroke-linecap="round" stroke-linejoin="round"/>
<path d="M80.8032 18.4453H79.0552" stroke="#444E59" stroke-width="0.456" stroke-miterlimit="10" stroke-linecap="round" stroke-linejoin="round"/>
<path d="M80.1344 20.1914H79.0552" stroke="#444E59" stroke-width="0.456" stroke-miterlimit="10" stroke-linecap="round" stroke-linejoin="round"/>
<path d="M80.8032 14.9492H79.0552" stroke="#444E59" stroke-width="0.456" stroke-miterlimit="10" stroke-linecap="round" stroke-linejoin="round"/>
<path d="M80.1344 16.6992H79.0552" stroke="#444E59" stroke-width="0.456" stroke-miterlimit="10" stroke-linecap="round" stroke-linejoin="round"/>
<path d="M80.8032 11.4531H79.0552" stroke="#444E59" stroke-width="0.456" stroke-miterlimit="10" stroke-linecap="round" stroke-linejoin="round"/>
<path d="M80.1344 13.1992H79.0552" stroke="#444E59" stroke-width="0.456" stroke-miterlimit="10" stroke-linecap="round" stroke-linejoin="round"/>
<path d="M71.7137 18.7969H69.7529V23.9801H71.7137V18.7969Z" fill="#848484"/>
<path opacity="0.25" d="M70.4825 18.7969H69.7529V23.9801H70.4825V18.7969Z" fill="#848484"/>
<path d="M71.7137 18.7969H69.7529V23.9801H71.7137V18.7969Z" stroke="#444E59" stroke-width="0.608" stroke-miterlimit="10" stroke-linecap="round" stroke-linejoin="round"/>
<path d="M71.1817 23.9922H70.2849V26.5002H71.1817V23.9922Z" fill="white"/>
<path d="M71.1817 23.9922H70.2849V26.5002H71.1817V23.9922Z" stroke="#444E59" stroke-width="0.608" stroke-miterlimit="10" stroke-linecap="round" stroke-linejoin="round"/>
<path d="M69.2209 28.7383L64.6609 46.6287L71.5921 28.9815L69.2209 28.7383Z" fill="white"/>
<path d="M69.2209 28.7383L64.6609 46.6287L71.5921 28.9815L69.2209 28.7383Z" stroke="#444E59" stroke-width="0.608" stroke-miterlimit="10" stroke-linecap="round" stroke-linejoin="round"/>
<path d="M72.2608 28.7383L76.8208 46.6287L69.9048 28.9815L72.2608 28.7383Z" fill="white"/>
<path d="M72.2608 28.7383L76.8208 46.6287L69.9048 28.9815L72.2608 28.7383Z" stroke="#444E59" stroke-width="0.608" stroke-miterlimit="10" stroke-linecap="round" stroke-linejoin="round"/>
<path d="M70.7408 32.248C72.4198 32.248 73.7808 30.887 73.7808 29.208C73.7808 27.529 72.4198 26.168 70.7408 26.168C69.0618 26.168 67.7008 27.529 67.7008 29.208C67.7008 30.887 69.0618 32.248 70.7408 32.248Z" fill="#71A850"/>
<path opacity="0.4" d="M68.552 29.208C68.552 27.6728 69.692 26.4112 71.1664 26.1984C71.0296 26.1832 70.8928 26.168 70.7408 26.168C69.0688 26.168 67.7008 27.536 67.7008 29.208C67.7008 30.88 69.0688 32.248 70.7408 32.248C70.8776 32.248 71.0296 32.2328 71.1664 32.2176C69.692 32.0048 68.552 30.7432 68.552 29.208Z" fill="#71A850"/>
<path d="M70.7408 32.248C72.4198 32.248 73.7808 30.887 73.7808 29.208C73.7808 27.529 72.4198 26.168 70.7408 26.168C69.0618 26.168 67.7008 27.529 67.7008 29.208C67.7008 30.887 69.0618 32.248 70.7408 32.248Z" stroke="#444E59" stroke-width="0.608" stroke-miterlimit="10" stroke-linecap="round" stroke-linejoin="round"/>
<path d="M70.7408 30.2391C71.3115 30.2391 71.7744 29.7764 71.7744 29.2055C71.7744 28.6346 71.3115 28.1719 70.7408 28.1719C70.1698 28.1719 69.7072 28.6346 69.7072 29.2055C69.7072 29.7764 70.1698 30.2391 70.7408 30.2391Z" fill="#444E59"/>
<path d="M70.7408 30.2391C71.3115 30.2391 71.7744 29.7764 71.7744 29.2055C71.7744 28.6346 71.3115 28.1719 70.7408 28.1719C70.1698 28.1719 69.7072 28.6346 69.7072 29.2055C69.7072 29.7764 70.1698 30.2391 70.7408 30.2391Z" stroke="#444E59" stroke-width="0.608" stroke-miterlimit="10" stroke-linecap="round" stroke-linejoin="round"/>
<path d="M59.7663 46.6H39.7023C38.5319 46.6 37.5743 45.6424 37.5743 44.472V3.128C37.5743 1.9576 38.5319 1 39.7023 1H59.7663C60.9367 1 61.8943 1.9576 61.8943 3.128V44.472C61.8943 45.6424 60.9367 46.6 59.7663 46.6Z" fill="#848484"/>
<path opacity="0.28" d="M59.7664 1H58.4896C59.66 1 60.6176 1.9576 60.6176 3.128V44.472C60.6176 45.6424 59.66 46.6 58.4896 46.6H59.7816C60.952 46.6 61.9096 45.6424 61.9096 44.472V3.128C61.8944 1.9424 60.9368 1 59.7664 1Z" fill="#848484"/>
<path opacity="0.48" d="M38.8359 44.472V3.128C38.8359 1.9576 39.7935 1 40.9639 1H39.7023C38.5319 1 37.5743 1.9576 37.5743 3.128V44.472C37.5743 45.6424 38.5319 46.6 39.7023 46.6H40.9639C39.7935 46.6 38.8359 45.6424 38.8359 44.472Z" fill="#848484"/>
<path d="M59.7663 46.6H39.7023C38.5319 46.6 37.5743 45.6424 37.5743 44.472V3.128C37.5743 1.9576 38.5319 1 39.7023 1H59.7663C60.9367 1 61.8943 1.9576 61.8943 3.128V44.472C61.8943 45.6424 60.9367 46.6 59.7663 46.6Z" stroke="#444E59" stroke-width="0.608" stroke-miterlimit="10" stroke-linecap="round" stroke-linejoin="round"/>
<path d="M61.8971 40.7435V6.69531H37.5771V40.7435H61.8971Z" fill="#E9FBFF"/>
<path d="M61.773 17.6721H59.873C58.8394 17.6721 58.0034 16.8361 58.0034 15.8025V11.1665C58.0034 10.1329 58.8394 9.29688 59.873 9.29688H61.773V17.6721Z" fill="#C9C9C9"/>
<path d="M38.9727 36.4498H37.5743V21.6602H38.9727C40.0215 21.6602 40.8727 22.5114 40.8727 23.5602V34.5498C40.8575 35.5986 40.0215 36.4498 38.9727 36.4498Z" fill="#C9C9C9"/>
<path d="M61.8971 40.7435V6.69531H37.5771V40.7435H61.8971Z" stroke="#444E59" stroke-width="0.608" stroke-miterlimit="10" stroke-linecap="round" stroke-linejoin="round"/>
<path d="M53.0786 4.02734H54.1426" stroke="#444E59" stroke-width="0.76" stroke-miterlimit="10" stroke-linecap="round" stroke-linejoin="round"/>
<path d="M45.3263 4.02734H51.4063" stroke="#444E59" stroke-width="0.76" stroke-miterlimit="10" stroke-linecap="round" stroke-linejoin="round"/>
<path opacity="0.29" d="M49.7343 44.9885C50.6577 44.9885 51.4063 44.2399 51.4063 43.3165C51.4063 42.393 50.6577 41.6445 49.7343 41.6445C48.8109 41.6445 48.0623 42.393 48.0623 43.3165C48.0623 44.2399 48.8109 44.9885 49.7343 44.9885Z" fill="#848484"/>
<path d="M49.7344 44.5809C50.4396 44.5809 51.0112 44.0093 51.0112 43.3041C51.0112 42.599 50.4396 42.0273 49.7344 42.0273C49.0293 42.0273 48.4576 42.599 48.4576 43.3041C48.4576 44.0093 49.0293 44.5809 49.7344 44.5809Z" fill="#444E59"/>
<g opacity="0.3">
<g opacity="0.3">
<g opacity="0.3">
<path opacity="0.3" d="M44.1868 36.6804H41.7548C41.086 36.6804 40.5388 36.1332 40.5388 35.4644V33.0324C40.5388 32.3636 41.086 31.8164 41.7548 31.8164H44.1868C44.8556 31.8164 45.4028 32.3636 45.4028 33.0324V35.4644C45.4028 36.1332 44.8556 36.6804 44.1868 36.6804Z" stroke="#444E59" stroke-width="0.304" stroke-linecap="round" stroke-linejoin="round" stroke-dasharray="0.62 0.62"/>
</g>
<g opacity="0.3">
<path opacity="0.3" d="M57.6386 36.6804H55.2066C54.5378 36.6804 53.9906 36.1332 53.9906 35.4644V33.0324C53.9906 32.3636 54.5378 31.8164 55.2066 31.8164H57.6386C58.3074 31.8164 58.8546 32.3636 58.8546 33.0324V35.4644C58.8546 36.1332 58.3074 36.6804 57.6386 36.6804Z" stroke="#444E59" stroke-width="0.304" stroke-linecap="round" stroke-linejoin="round" stroke-dasharray="0.62 0.62"/>
</g>
<g opacity="0.3">
<path opacity="0.3" d="M50.9508 36.6804H48.5188C47.85 36.6804 47.3028 36.1332 47.3028 35.4644V33.0324C47.3028 32.3636 47.85 31.8164 48.5188 31.8164H50.9508C51.6196 31.8164 52.1668 32.3636 52.1668 33.0324V35.4644C52.1668 36.1332 51.6196 36.6804 50.9508 36.6804Z" stroke="#444E59" stroke-width="0.304" stroke-linecap="round" stroke-linejoin="round" stroke-dasharray="0.62 0.62"/>
</g>
</g>
<g opacity="0.3">
<g opacity="0.3">
<path opacity="0.3" d="M44.1868 29.3796H41.7548C41.086 29.3796 40.5388 28.8324 40.5388 28.1636V25.7316C40.5388 25.0628 41.086 24.5156 41.7548 24.5156H44.1868C44.8556 24.5156 45.4028 25.0628 45.4028 25.7316V28.1636C45.4028 28.8324 44.8556 29.3796 44.1868 29.3796Z" stroke="#444E59" stroke-width="0.304" stroke-linecap="round" stroke-linejoin="round" stroke-dasharray="0.62 0.62"/>
</g>
<g opacity="0.3">
<path opacity="0.3" d="M57.6385 29.3796H55.2065C54.5377 29.3796 53.9905 28.8324 53.9905 28.1636V25.7316C53.9905 25.0628 54.5377 24.5156 55.2065 24.5156H57.6385C58.3073 24.5156 58.8545 25.0628 58.8545 25.7316V28.1636C58.8545 28.8324 58.3073 29.3796 57.6385 29.3796Z" stroke="#444E59" stroke-width="0.304" stroke-linecap="round" stroke-linejoin="round" stroke-dasharray="0.62 0.62"/>
</g>
<g opacity="0.3">
<path opacity="0.3" d="M50.9508 29.3796H48.5188C47.85 29.3796 47.3028 28.8324 47.3028 28.1636V25.7316C47.3028 25.0628 47.85 24.5156 48.5188 24.5156H50.9508C51.6196 24.5156 52.1668 25.0628 52.1668 25.7316V28.1636C52.1668 28.8324 51.6196 29.3796 50.9508 29.3796Z" stroke="#444E59" stroke-width="0.304" stroke-linecap="round" stroke-linejoin="round" stroke-dasharray="0.62 0.62"/>
</g>
</g>
<g opacity="0.3">
<g opacity="0.3">
<path opacity="0.3" d="M44.1865 22.0749H41.7545C41.0857 22.0749 40.5385 21.5277 40.5385 20.8589V18.4269C40.5385 17.7581 41.0857 17.2109 41.7545 17.2109H44.1865C44.8553 17.2109 45.4025 17.7581 45.4025 18.4269V20.8589C45.4025 21.5277 44.8553 22.0749 44.1865 22.0749Z" stroke="#444E59" stroke-width="0.304" stroke-linecap="round" stroke-linejoin="round" stroke-dasharray="0.62 0.62"/>
</g>
<g opacity="0.3">
<path opacity="0.3" d="M57.6382 22.0749H55.2062C54.5374 22.0749 53.9902 21.5277 53.9902 20.8589V18.4269C53.9902 17.7581 54.5374 17.2109 55.2062 17.2109H57.6382C58.307 17.2109 58.8542 17.7581 58.8542 18.4269V20.8589C58.8542 21.5277 58.307 22.0749 57.6382 22.0749Z" stroke="#444E59" stroke-width="0.304" stroke-linecap="round" stroke-linejoin="round" stroke-dasharray="0.62 0.62"/>
</g>
<g opacity="0.3">
<path opacity="0.3" d="M50.9505 22.0749H48.5185C47.8497 22.0749 47.3025 21.5277 47.3025 20.8589V18.4269C47.3025 17.7581 47.8497 17.2109 48.5185 17.2109H50.9505C51.6193 17.2109 52.1665 17.7581 52.1665 18.4269V20.8589C52.1665 21.5277 51.6193 22.0749 50.9505 22.0749Z" stroke="#444E59" stroke-width="0.304" stroke-linecap="round" stroke-linejoin="round" stroke-dasharray="0.62 0.62"/>
</g>
</g>
<g opacity="0.3">
<g opacity="0.3">
<path opacity="0.3" d="M44.1868 14.7859H41.7548C41.086 14.7859 40.5388 14.2387 40.5388 13.5699V11.1379C40.5388 10.4691 41.086 9.92188 41.7548 9.92188H44.1868C44.8556 9.92188 45.4028 10.4691 45.4028 11.1379V13.5699C45.4028 14.2387 44.8556 14.7859 44.1868 14.7859Z" stroke="#444E59" stroke-width="0.304" stroke-linecap="round" stroke-linejoin="round" stroke-dasharray="0.62 0.62"/>
</g>
<g opacity="0.3">
<path opacity="0.3" d="M57.6385 14.7859H55.2065C54.5377 14.7859 53.9905 14.2387 53.9905 13.5699V11.1379C53.9905 10.4691 54.5377 9.92188 55.2065 9.92188H57.6385C58.3073 9.92188 58.8545 10.4691 58.8545 11.1379V13.5699C58.8545 14.2387 58.3073 14.7859 57.6385 14.7859Z" stroke="#444E59" stroke-width="0.304" stroke-linecap="round" stroke-linejoin="round" stroke-dasharray="0.62 0.62"/>
</g>
<g opacity="0.3">
<path opacity="0.3" d="M50.9508 14.7859H48.5188C47.85 14.7859 47.3028 14.2387 47.3028 13.5699V11.1379C47.3028 10.4691 47.85 9.92188 48.5188 9.92188H50.9508C51.6196 9.92188 52.1668 10.4691 52.1668 11.1379V13.5699C52.1668 14.2387 51.6196 14.7859 50.9508 14.7859Z" stroke="#444E59" stroke-width="0.304" stroke-linecap="round" stroke-linejoin="round" stroke-dasharray="0.62 0.62"/>
</g>
</g>
</g>
<path d="M44.1863 36.6648H41.7543C41.0855 36.6648 40.5383 36.1176 40.5383 35.4488V33.0168C40.5383 32.348 41.0855 31.8008 41.7543 31.8008H44.1863C44.8551 31.8008 45.4023 32.348 45.4023 33.0168V35.4488C45.4023 36.1176 44.8551 36.6648 44.1863 36.6648Z" fill="#71A850"/>
<path opacity="0.52" d="M44.1864 31.8008H41.7544C41.268 31.8008 40.8424 32.0896 40.66 32.5L45.4024 33.3512V33.0168C45.4024 32.348 44.8552 31.8008 44.1864 31.8008Z" fill="#5F8C42"/>
<path d="M44.1863 36.6648H41.7543C41.0855 36.6648 40.5383 36.1176 40.5383 35.4488V33.0168C40.5383 32.348 41.0855 31.8008 41.7543 31.8008H44.1863C44.8551 31.8008 45.4023 32.348 45.4023 33.0168V35.4488C45.4023 36.1176 44.8551 36.6648 44.1863 36.6648Z" stroke="#444E59" stroke-width="0.608" stroke-miterlimit="10" stroke-linecap="round" stroke-linejoin="round"/>
<path d="M50.9504 36.6648H48.5184C47.8496 36.6648 47.3024 36.1176 47.3024 35.4488V33.0168C47.3024 32.348 47.8496 31.8008 48.5184 31.8008H50.9504C51.6192 31.8008 52.1664 32.348 52.1664 33.0168V35.4488C52.1664 36.1176 51.6192 36.6648 50.9504 36.6648Z" fill="#E61158"/>
<path opacity="0.52" d="M50.9502 31.8008H48.5182C48.0318 31.8008 47.6062 32.0896 47.4238 32.5L52.1662 33.3512V33.0168C52.1662 32.348 51.619 31.8008 50.9502 31.8008Z" fill="#D38444"/>
<path d="M50.9504 36.6648H48.5184C47.8496 36.6648 47.3024 36.1176 47.3024 35.4488V33.0168C47.3024 32.348 47.8496 31.8008 48.5184 31.8008H50.9504C51.6192 31.8008 52.1664 32.348 52.1664 33.0168V35.4488C52.1664 36.1176 51.6192 36.6648 50.9504 36.6648Z" stroke="#444E59" stroke-width="0.608" stroke-miterlimit="10" stroke-linecap="round" stroke-linejoin="round"/>
<path d="M57.6385 29.3718H55.2065C54.5377 29.3718 53.9905 28.8246 53.9905 28.1558V25.7238C53.9905 25.055 54.5377 24.5078 55.2065 24.5078H57.6385C58.3073 24.5078 58.8545 25.055 58.8545 25.7238V28.1558C58.8545 28.8246 58.3073 29.3718 57.6385 29.3718Z" fill="#2FA9ED"/>
<path opacity="0.52" d="M57.6383 24.5078H55.2063C54.7199 24.5078 54.2943 24.7966 54.1119 25.207L58.8543 26.0582V25.7238C58.8543 25.055 58.3071 24.5078 57.6383 24.5078Z" fill="#288FBC"/>
<path d="M57.6385 29.3718H55.2065C54.5377 29.3718 53.9905 28.8246 53.9905 28.1558V25.7238C53.9905 25.055 54.5377 24.5078 55.2065 24.5078H57.6385C58.3073 24.5078 58.8545 25.055 58.8545 25.7238V28.1558C58.8545 28.8246 58.3073 29.3718 57.6385 29.3718Z" stroke="#444E59" stroke-width="0.608" stroke-miterlimit="10" stroke-linecap="round" stroke-linejoin="round"/>
<path d="M50.9504 22.0788H48.5184C47.8496 22.0788 47.3024 21.5316 47.3024 20.8628V18.4308C47.3024 17.762 47.8496 17.2148 48.5184 17.2148H50.9504C51.6192 17.2148 52.1664 17.762 52.1664 18.4308V20.8628C52.1664 21.5316 51.6192 22.0788 50.9504 22.0788Z" fill="#E7534E"/>
<path opacity="0.52" d="M50.9502 17.2148H48.5182C48.0318 17.2148 47.6062 17.5036 47.4238 17.914L52.1662 18.7652V18.4308C52.1662 17.762 51.619 17.2148 50.9502 17.2148Z" fill="#BF4040"/>
<path d="M50.9504 22.0788H48.5184C47.8496 22.0788 47.3024 21.5316 47.3024 20.8628V18.4308C47.3024 17.762 47.8496 17.2148 48.5184 17.2148H50.9504C51.6192 17.2148 52.1664 17.762 52.1664 18.4308V20.8628C52.1664 21.5316 51.6192 22.0788 50.9504 22.0788Z" stroke="#444E59" stroke-width="0.608" stroke-miterlimit="10" stroke-linecap="round" stroke-linejoin="round"/>
<path d="M56.027 25.8829L57.4254 26.6885C57.623 26.8101 57.623 27.0989 57.4254 27.2053L56.027 28.0109C55.8294 28.1325 55.571 27.9805 55.571 27.7525V26.1413C55.571 25.9133 55.8294 25.7613 56.027 25.8829Z" fill="white"/>
<path d="M50.3728 33.293H49.096C48.8224 33.293 48.6096 33.521 48.6096 33.7794V34.7218C48.6096 34.9954 48.8376 35.2082 49.096 35.2082H49.1416L49.0352 35.6338C49.02 35.6642 49.0656 35.6946 49.096 35.6642L49.7496 35.2082H50.4032C50.6768 35.2082 50.8896 34.9802 50.8896 34.7218V33.7794C50.8744 33.5058 50.6464 33.293 50.3728 33.293Z" fill="white"/>
<path d="M42.0281 34.2344L42.5905 34.7968C42.6665 34.8728 42.7881 34.8728 42.8641 34.7968L44.1257 33.5352" stroke="white" stroke-width="0.608" stroke-miterlimit="10" stroke-linecap="round" stroke-linejoin="round"/>
<path d="M49.7342 20.7878C50.3638 20.7878 50.8742 20.2775 50.8742 19.6478C50.8742 19.0182 50.3638 18.5078 49.7342 18.5078C49.1047 18.5078 48.5942 19.0182 48.5942 19.6478C48.5942 20.2775 49.1047 20.7878 49.7342 20.7878Z" stroke="white" stroke-width="0.608" stroke-miterlimit="10" stroke-linecap="round" stroke-linejoin="round"/>
<path d="M40.5535 13.7204L40.5231 11.4404L39.0031 11.4556C38.9119 11.1668 38.8055 10.9084 38.6535 10.65L39.7175 9.55564L38.0911 7.95964L37.0271 9.05404C36.7687 8.91724 36.4951 8.81084 36.2063 8.73484L36.1911 7.21484L33.9111 7.24524L33.9263 8.76524C33.6375 8.85644 33.3791 8.96284 33.1207 9.11484L32.0263 8.05084L30.4303 9.67724L31.5247 10.7412C31.3879 10.9996 31.2815 11.2732 31.2055 11.562L29.6855 11.5772L29.7159 13.8572L31.2359 13.842C31.3271 14.1308 31.4335 14.3892 31.5855 14.6476L30.5215 15.742L32.1479 17.338L33.2119 16.2436C33.4703 16.3804 33.7439 16.4868 34.0327 16.5628L34.0479 18.0828L36.3279 18.0524L36.3127 16.5324C36.6015 16.4412 36.8599 16.3348 37.1183 16.1828L38.2127 17.2468L39.8087 15.6204L38.7143 14.5564C38.8511 14.298 38.9575 14.0244 39.0335 13.7356L40.5535 13.7204ZM35.1575 14.4196C34.1695 14.4348 33.3791 13.6444 33.3639 12.6564C33.3487 11.6684 34.1391 10.878 35.1271 10.8628C36.1151 10.8476 36.9055 11.638 36.9207 12.626C36.9207 13.614 36.1303 14.4044 35.1575 14.4196Z" fill="white"/>
<path d="M40.5535 13.7204L40.5231 11.4404L39.0031 11.4556C38.9119 11.1668 38.8055 10.9084 38.6535 10.65L39.7175 9.55564L38.0911 7.95964L37.0271 9.05404C36.7687 8.91724 36.4951 8.81084 36.2063 8.73484L36.1911 7.21484L33.9111 7.24524L33.9263 8.76524C33.6375 8.85644 33.3791 8.96284 33.1207 9.11484L32.0263 8.05084L30.4303 9.67724L31.5247 10.7412C31.3879 10.9996 31.2815 11.2732 31.2055 11.562L29.6855 11.5772L29.7159 13.8572L31.2359 13.842C31.3271 14.1308 31.4335 14.3892 31.5855 14.6476L30.5215 15.742L32.1479 17.338L33.2119 16.2436C33.4703 16.3804 33.7439 16.4868 34.0327 16.5628L34.0479 18.0828L36.3279 18.0524L36.3127 16.5324C36.6015 16.4412 36.8599 16.3348 37.1183 16.1828L38.2127 17.2468L39.8087 15.6204L38.7143 14.5564C38.8511 14.298 38.9575 14.0244 39.0335 13.7356L40.5535 13.7204ZM35.1575 14.4196C34.1695 14.4348 33.3791 13.6444 33.3639 12.6564C33.3487 11.6684 34.1391 10.878 35.1271 10.8628C36.1151 10.8476 36.9055 11.638 36.9207 12.626C36.9207 13.614 36.1303 14.4044 35.1575 14.4196Z" fill="#E61158"/>
<path d="M40.5535 13.7204L40.5231 11.4404L39.0031 11.4556C38.9119 11.1668 38.8055 10.9084 38.6535 10.65L39.7175 9.55564L38.0911 7.95964L37.0271 9.05404C36.7687 8.91724 36.4951 8.81084 36.2063 8.73484L36.1911 7.21484L33.9111 7.24524L33.9263 8.76524C33.6375 8.85644 33.3791 8.96284 33.1207 9.11484L32.0263 8.05084L30.4303 9.67724L31.5247 10.7412C31.3879 10.9996 31.2815 11.2732 31.2055 11.562L29.6855 11.5772L29.7159 13.8572L31.2359 13.842C31.3271 14.1308 31.4335 14.3892 31.5855 14.6476L30.5215 15.742L32.1479 17.338L33.2119 16.2436C33.4703 16.3804 33.7439 16.4868 34.0327 16.5628L34.0479 18.0828L36.3279 18.0524L36.3127 16.5324C36.6015 16.4412 36.8599 16.3348 37.1183 16.1828L38.2127 17.2468L39.8087 15.6204L38.7143 14.5564C38.8511 14.298 38.9575 14.0244 39.0335 13.7356L40.5535 13.7204ZM35.1575 14.4196C34.1695 14.4348 33.3791 13.6444 33.3639 12.6564C33.3487 11.6684 34.1391 10.878 35.1271 10.8628C36.1151 10.8476 36.9055 11.638 36.9207 12.626C36.9207 13.614 36.1303 14.4044 35.1575 14.4196Z" fill="#E61158"/>
<g opacity="0.29">
<path opacity="0.29" d="M39.9761 11.4488H40.5385V11.4336L39.9761 11.4488Z" fill="#E61158"/>
<path opacity="0.29" d="M38 9.06315L38.5928 8.45515L38.1064 7.96875L37.316 8.77435C37.5592 8.85035 37.7872 8.94155 38 9.06315Z" fill="#E61158"/>
<path opacity="0.29" d="M36.0698 10.8555C35.9026 10.8555 35.7506 10.8859 35.6138 10.9163C36.3586 11.1291 36.9058 11.7979 36.9058 12.6035C36.921 13.4243 36.3586 14.1235 35.6138 14.3363C35.7658 14.3819 35.9482 14.4123 36.1154 14.3971C37.1034 14.3819 37.8786 13.5763 37.8786 12.6035C37.8786 11.6307 37.0578 10.8555 36.0698 10.8555Z" fill="#E61158"/>
<path opacity="0.29" d="M33.8049 8.80651L34.1089 9.09531C34.3673 8.95851 34.6257 8.83691 34.9145 8.74571L34.8993 7.22571L36.2065 7.21051V7.19531L33.9265 7.22571L33.9417 8.74571C33.9113 8.77611 33.8505 8.79131 33.8049 8.80651Z" fill="#E61158"/>
<path opacity="0.29" d="M34.9905 16.5497C34.7017 16.4737 34.4281 16.3673 34.1697 16.2305L33.8961 16.5193C33.9417 16.5345 33.9873 16.5497 34.0329 16.5649L34.0481 18.0849L35.0057 18.0697L34.9905 16.5497Z" fill="#E61158"/>
<path opacity="0.29" d="M30.6738 11.5577L32.1938 11.5425C32.2698 11.2537 32.3762 10.9801 32.513 10.7217L31.4186 9.65765L32.5434 8.51765L32.057 8.03125L30.461 9.65765L31.5554 10.7217C31.4186 10.9801 31.3122 11.2537 31.2362 11.5425L29.7162 11.5577L29.7466 13.8377L30.7042 13.8225L30.6738 11.5577Z" fill="#E61158"/>
<path opacity="0.29" d="M38.0761 16.1836C37.8633 16.3052 37.6505 16.3964 37.4225 16.4724L38.2129 17.2476L38.6841 16.7612L38.0761 16.1836Z" fill="#E61158"/>
<path opacity="0.29" d="M31.4947 15.7086L32.5587 14.6142C32.4219 14.3558 32.3003 14.0974 32.2091 13.8086L31.2515 13.8238C31.3427 14.0974 31.4491 14.371 31.5859 14.6142L30.5219 15.7086L32.1483 17.3046L32.6195 16.8182L31.4947 15.7086Z" fill="#E61158"/>
</g>
<path d="M40.5535 13.7204L40.5231 11.4404L39.0031 11.4556C38.9119 11.1668 38.8055 10.9084 38.6535 10.65L39.7175 9.55564L38.0911 7.95964L37.0271 9.05404C36.7687 8.91724 36.4951 8.81084 36.2063 8.73484L36.1911 7.21484L33.9111 7.24524L33.9263 8.76524C33.6375 8.85644 33.3791 8.96284 33.1207 9.11484L32.0263 8.05084L30.4303 9.67724L31.5247 10.7412C31.3879 10.9996 31.2815 11.2732 31.2055 11.562L29.6855 11.5772L29.7159 13.8572L31.2359 13.842C31.3271 14.1308 31.4335 14.3892 31.5855 14.6476L30.5215 15.742L32.1479 17.338L33.2119 16.2436C33.4703 16.3804 33.7439 16.4868 34.0327 16.5628L34.0479 18.0828L36.3279 18.0524L36.3127 16.5324C36.6015 16.4412 36.8599 16.3348 37.1183 16.1828L38.2127 17.2468L39.8087 15.6204L38.7143 14.5564C38.8511 14.298 38.9575 14.0244 39.0335 13.7356L40.5535 13.7204ZM35.1575 14.4196C34.1695 14.4348 33.3791 13.6444 33.3639 12.6564C33.3487 11.6684 34.1391 10.878 35.1271 10.8628C36.1151 10.8476 36.9055 11.638 36.9207 12.626C36.9207 13.614 36.1303 14.4044 35.1575 14.4196Z" stroke="#444E59" stroke-width="0.608" stroke-miterlimit="10" stroke-linecap="round" stroke-linejoin="round"/>
<path d="M31.0537 46.5971H12.2513C11.6281 46.5971 11.1265 46.0955 11.1265 45.4723V32.6131C11.1265 31.9899 11.6281 31.4883 12.2513 31.4883H31.0689C31.6921 31.4883 32.1937 31.9899 32.1937 32.6131V45.4723C32.1785 46.0955 31.6769 46.5971 31.0537 46.5971Z" fill="#444E59"/>
<path d="M32.1785 33.9355H11.1265V32.6131C11.1265 31.9899 11.6281 31.4883 12.2513 31.4883H31.0689C31.6921 31.4883 32.1937 31.9899 32.1937 32.6131V33.9355H32.1785Z" fill="#BCBCBC"/>
<path d="M31.0537 46.5971H12.2513C11.6281 46.5971 11.1265 46.0955 11.1265 45.4723V32.6131C11.1265 31.9899 11.6281 31.4883 12.2513 31.4883H31.0689C31.6921 31.4883 32.1937 31.9899 32.1937 32.6131V45.4723C32.1785 46.0955 31.6769 46.5971 31.0537 46.5971Z" stroke="#444E59" stroke-width="0.608" stroke-miterlimit="10" stroke-linecap="round" stroke-linejoin="round"/>
<path d="M31.0537 46.5971H12.2513C11.6281 46.5971 11.1265 46.0955 11.1265 45.4723V32.6131C11.1265 31.9899 11.6281 31.4883 12.2513 31.4883H31.0689C31.6921 31.4883 32.1937 31.9899 32.1937 32.6131V45.4723C32.1785 46.0955 31.6769 46.5971 31.0537 46.5971Z" stroke="#444E59" stroke-width="0.608" stroke-miterlimit="10" stroke-linecap="round" stroke-linejoin="round"/>
<path d="M32.1785 33.9355H11.1265V32.6131C11.1265 31.9899 11.6281 31.4883 12.2513 31.4883H31.0689C31.6921 31.4883 32.1937 31.9899 32.1937 32.6131V33.9355H32.1785Z" stroke="#444E59" stroke-width="0.608" stroke-miterlimit="10" stroke-linecap="round" stroke-linejoin="round"/>
<path d="M14.0297 44.668H16.4009" stroke="white" stroke-width="0.608" stroke-miterlimit="10" stroke-linecap="round" stroke-linejoin="round"/>
<path d="M12.3578 44.668H12.525" stroke="white" stroke-width="0.608" stroke-miterlimit="10" stroke-linecap="round" stroke-linejoin="round"/>
<path d="M14.0297 43.3633H20.0337" stroke="white" stroke-width="0.608" stroke-miterlimit="10" stroke-linecap="round" stroke-linejoin="round"/>
<path d="M12.3578 43.3633H12.525" stroke="white" stroke-width="0.608" stroke-miterlimit="10" stroke-linecap="round" stroke-linejoin="round"/>
<path d="M22.8911 42.0273H24.5327" stroke="#64BDFF" stroke-width="0.608" stroke-miterlimit="10" stroke-linecap="round" stroke-linejoin="round"/>
<path d="M18.4222 42.0273H21.4622" stroke="white" stroke-width="0.608" stroke-miterlimit="10" stroke-linecap="round" stroke-linejoin="round"/>
<path d="M14.0297 42.0273H17.0393" stroke="#FF5F5F" stroke-width="0.608" stroke-miterlimit="10" stroke-linecap="round" stroke-linejoin="round"/>
<path d="M12.3578 42.0273H12.525" stroke="white" stroke-width="0.608" stroke-miterlimit="10" stroke-linecap="round" stroke-linejoin="round"/>
<path d="M19.0912 40.7266H26.4176" stroke="white" stroke-width="0.608" stroke-miterlimit="10" stroke-linecap="round" stroke-linejoin="round"/>
<path d="M14.0297 40.7266H17.8601" stroke="#64BDFF" stroke-width="0.608" stroke-miterlimit="10" stroke-linecap="round" stroke-linejoin="round"/>
<path d="M12.3578 40.7266H12.525" stroke="white" stroke-width="0.608" stroke-miterlimit="10" stroke-linecap="round" stroke-linejoin="round"/>
<path d="M19.0912 39.4258H21.8272" stroke="#FF5F5F" stroke-width="0.608" stroke-miterlimit="10" stroke-linecap="round" stroke-linejoin="round"/>
<path d="M14.0297 39.4258H17.8601" stroke="#FFBE78" stroke-width="0.608" stroke-miterlimit="10" stroke-linecap="round" stroke-linejoin="round"/>
<path d="M12.3578 39.4258H12.525" stroke="white" stroke-width="0.608" stroke-miterlimit="10" stroke-linecap="round" stroke-linejoin="round"/>
<path d="M19.6233 38.1094H20.3681" stroke="#64BDFF" stroke-width="0.608" stroke-miterlimit="10" stroke-linecap="round" stroke-linejoin="round"/>
<path d="M16.7354 38.1094H18.4226" stroke="#FF5F5F" stroke-width="0.608" stroke-miterlimit="10" stroke-linecap="round" stroke-linejoin="round"/>
<path d="M14.0297 38.1094H15.4281" stroke="#C383F2" stroke-width="0.608" stroke-miterlimit="10" stroke-linecap="round" stroke-linejoin="round"/>
<path d="M12.3578 38.1094H12.525" stroke="white" stroke-width="0.608" stroke-miterlimit="10" stroke-linecap="round" stroke-linejoin="round"/>
<path d="M25.0952 36.7891H26.4176" stroke="#64BDFF" stroke-width="0.608" stroke-miterlimit="10" stroke-linecap="round" stroke-linejoin="round"/>
<path d="M18.2402 36.7891H23.4234" stroke="#FF5F5F" stroke-width="0.608" stroke-miterlimit="10" stroke-linecap="round" stroke-linejoin="round"/>
<path d="M14.0297 36.7891H17.1153" stroke="#FFBE78" stroke-width="0.608" stroke-miterlimit="10" stroke-linecap="round" stroke-linejoin="round"/>
<path d="M12.3578 36.7891H12.525" stroke="white" stroke-width="0.608" stroke-miterlimit="10" stroke-linecap="round" stroke-linejoin="round"/>
<path d="M21.8274 35.4805H24.533" stroke="#FFBE78" stroke-width="0.608" stroke-miterlimit="10" stroke-linecap="round" stroke-linejoin="round"/>
<path d="M18.4222 35.4805H20.5198" stroke="#6DBF7B" stroke-width="0.608" stroke-miterlimit="10" stroke-linecap="round" stroke-linejoin="round"/>
<path d="M16.1426 35.4805H17.3282" stroke="#FFBE78" stroke-width="0.608" stroke-miterlimit="10" stroke-linecap="round" stroke-linejoin="round"/>
<path d="M14.0297 35.4805H15.0025" stroke="#6DBF7B" stroke-width="0.608" stroke-miterlimit="10" stroke-linecap="round" stroke-linejoin="round"/>
<path d="M12.3578 35.4805H12.525" stroke="white" stroke-width="0.608" stroke-miterlimit="10" stroke-linecap="round" stroke-linejoin="round"/>
<path d="M13.209 33.0881C13.4189 33.0881 13.589 32.918 13.589 32.7081C13.589 32.4984 13.4189 32.3281 13.209 32.3281C12.9991 32.3281 12.829 32.4984 12.829 32.7081C12.829 32.918 12.9991 33.0881 13.209 33.0881Z" fill="#E7534E"/>
<path d="M14.5769 33.0881C14.7868 33.0881 14.9569 32.918 14.9569 32.7081C14.9569 32.4984 14.7868 32.3281 14.5769 32.3281C14.367 32.3281 14.1969 32.4984 14.1969 32.7081C14.1969 32.918 14.367 33.0881 14.5769 33.0881Z" fill="#444E59"/>
<path d="M15.9601 33.0881C16.17 33.0881 16.3401 32.918 16.3401 32.7081C16.3401 32.4984 16.17 32.3281 15.9601 32.3281C15.7502 32.3281 15.5801 32.4984 15.5801 32.7081C15.5801 32.918 15.7502 33.0881 15.9601 33.0881Z" fill="#444E59"/>
<path d="M38.5472 35.2679H24.928C24.2592 35.2679 23.712 34.7207 23.712 34.0519V21.7551C23.712 21.0863 24.2592 20.5391 24.928 20.5391H38.5472C39.216 20.5391 39.7632 21.0863 39.7632 21.7551V34.0519C39.7632 34.7207 39.216 35.2679 38.5472 35.2679Z" fill="white"/>
<path d="M38.5472 35.2679H24.928C24.2592 35.2679 23.712 34.7207 23.712 34.0519V21.7551C23.712 21.0863 24.2592 20.5391 24.928 20.5391H38.5472C39.216 20.5391 39.7632 21.0863 39.7632 21.7551V34.0519C39.7632 34.7207 39.216 35.2679 38.5472 35.2679Z" fill="white"/>
<path d="M38.5472 35.2679H24.928C24.2592 35.2679 23.712 34.7207 23.712 34.0519V21.7551C23.712 21.0863 24.2592 20.5391 24.928 20.5391H38.5472C39.216 20.5391 39.7632 21.0863 39.7632 21.7551V34.0519C39.7632 34.7207 39.216 35.2679 38.5472 35.2679Z" stroke="#444E59" stroke-width="0.608" stroke-miterlimit="10" stroke-linecap="round" stroke-linejoin="round"/>
<path d="M38.2888 21.7891H25.0952V30.5595H38.2888V21.7891Z" fill="#FF4C3B"/>
<path d="M38.2888 21.7891H25.0952V30.5595H38.2888V21.7891Z" stroke="#444E59" stroke-width="0.608" stroke-miterlimit="10" stroke-linecap="round" stroke-linejoin="round"/>
<path d="M25.0952 31.957H33.4248" stroke="#444E59" stroke-width="0.608" stroke-miterlimit="10" stroke-linecap="round" stroke-linejoin="round"/>
<path d="M25.0952 33.3555H30.02" stroke="#444E59" stroke-width="0.608" stroke-miterlimit="10" stroke-linecap="round" stroke-linejoin="round"/>
<path d="M26.4178 28.9917L29.2602 26.1797L31.905 28.8245" stroke="#444E59" stroke-width="0.608" stroke-miterlimit="10" stroke-linecap="round" stroke-linejoin="round"/>
<path d="M36.8602 28.9918L33.425 24.5078L30.6738 27.5782" stroke="#444E59" stroke-width="0.608" stroke-miterlimit="10" stroke-linecap="round" stroke-linejoin="round"/>
<path d="M36.8296 33.3333C37.2409 33.3333 37.5744 32.9999 37.5744 32.5885C37.5744 32.1772 37.2409 31.8438 36.8296 31.8438C36.4183 31.8438 36.0848 32.1772 36.0848 32.5885C36.0848 32.9999 36.4183 33.3333 36.8296 33.3333Z" stroke="#444E59" stroke-width="0.608" stroke-miterlimit="10" stroke-linecap="round" stroke-linejoin="round"/>
<path d="M30.096 25.4551C30.6164 25.4551 31.0384 25.0332 31.0384 24.5127C31.0384 23.9923 30.6164 23.5703 30.096 23.5703C29.5755 23.5703 29.1536 23.9923 29.1536 24.5127C29.1536 25.0332 29.5755 25.4551 30.096 25.4551Z" fill="#E61158"/>
<path d="M30.096 25.4551C30.6164 25.4551 31.0384 25.0332 31.0384 24.5127C31.0384 23.9923 30.6164 23.5703 30.096 23.5703C29.5755 23.5703 29.1536 23.9923 29.1536 24.5127C29.1536 25.0332 29.5755 25.4551 30.096 25.4551Z" fill="#FF4C3B" stroke="#444E59" stroke-width="0.608" stroke-miterlimit="10" stroke-linecap="round" stroke-linejoin="round"/>
<path d="M23.4536 16.2109H27.5272" stroke="#444E59" stroke-width="0.608" stroke-miterlimit="10" stroke-linecap="round" stroke-linejoin="round"/>
<path d="M21.28 16.2109H22.3592" stroke="#444E59" stroke-width="0.608" stroke-miterlimit="10" stroke-linecap="round" stroke-linejoin="round"/>
<path d="M25.4905 14.3242H27.5273" stroke="#444E59" stroke-width="0.608" stroke-miterlimit="10" stroke-linecap="round" stroke-linejoin="round"/>
<path d="M23.849 14.3242H24.457" stroke="#444E59" stroke-width="0.608" stroke-miterlimit="10" stroke-linecap="round" stroke-linejoin="round"/>
<path d="M19.0455 28.1289H22.2223" stroke="#444E59" stroke-width="0.608" stroke-miterlimit="10" stroke-linecap="round" stroke-linejoin="round"/>
<path d="M17.3585 28.1289H18.1945" stroke="#444E59" stroke-width="0.608" stroke-miterlimit="10" stroke-linecap="round" stroke-linejoin="round"/>
<path d="M20.9307 26.2344H22.2227" stroke="#444E59" stroke-width="0.608" stroke-miterlimit="10" stroke-linecap="round" stroke-linejoin="round"/>
<path d="M19.3497 26.2344H19.8361" stroke="#444E59" stroke-width="0.608" stroke-miterlimit="10" stroke-linecap="round" stroke-linejoin="round"/>
<path d="M69.7072 6.07422H72.7168" stroke="#444E59" stroke-width="0.608" stroke-miterlimit="10" stroke-linecap="round" stroke-linejoin="round"/>
<path d="M67.8529 6.07422H68.7041" stroke="#444E59" stroke-width="0.608" stroke-miterlimit="10" stroke-linecap="round" stroke-linejoin="round"/>
<path d="M71.4249 4.17969H72.7169" stroke="#444E59" stroke-width="0.608" stroke-miterlimit="10" stroke-linecap="round" stroke-linejoin="round"/>
<path d="M69.8593 4.17969H70.3305" stroke="#444E59" stroke-width="0.608" stroke-miterlimit="10" stroke-linecap="round" stroke-linejoin="round"/>
<path d="M72.0481 16.6916H60.1617C59.4321 16.6916 58.8545 16.0988 58.8545 15.3844V9.62361C58.8545 8.89401 59.4473 8.31641 60.1617 8.31641H72.0481C72.7777 8.31641 73.3553 8.90921 73.3553 9.62361V15.3692C73.3553 16.0988 72.7777 16.6916 72.0481 16.6916Z" fill="#E81656"/>
<path d="M72.0481 16.6916H60.1617C59.4321 16.6916 58.8545 16.0988 58.8545 15.3844V9.62361C58.8545 8.89401 59.4473 8.31641 60.1617 8.31641H72.0481C72.7777 8.31641 73.3553 8.90921 73.3553 9.62361V15.3692C73.3553 16.0988 72.7777 16.6916 72.0481 16.6916Z" stroke="#444E59" stroke-width="0.456" stroke-miterlimit="10" stroke-linecap="round" stroke-linejoin="round"/>
<path opacity="0.56" d="M66.1046 10.5781H71.2422" stroke="white" stroke-width="0.456" stroke-miterlimit="10" stroke-linecap="round" stroke-linejoin="round"/>
<path opacity="0.56" d="M66.1046 12.2266H69.5094" stroke="white" stroke-width="0.456" stroke-miterlimit="10" stroke-linecap="round" stroke-linejoin="round"/>
<g opacity="0.56">
<path opacity="0.56" d="M68.6889 14.7063H66.6217C66.3481 14.7063 66.1201 14.4783 66.1201 14.2047C66.1201 13.9311 66.3481 13.7031 66.6217 13.7031H68.6889C68.9625 13.7031 69.1905 13.9311 69.1905 14.2047C69.1905 14.4783 68.9777 14.7063 68.6889 14.7063Z" fill="white"/>
<path opacity="0.56" d="M68.6889 14.7063H66.6217C66.3481 14.7063 66.1201 14.4783 66.1201 14.2047C66.1201 13.9311 66.3481 13.7031 66.6217 13.7031H68.6889C68.9625 13.7031 69.1905 13.9311 69.1905 14.2047C69.1905 14.4783 68.9777 14.7063 68.6889 14.7063Z" stroke="white" stroke-width="0.456" stroke-miterlimit="10" stroke-linecap="round" stroke-linejoin="round"/>
</g>
<path d="M63.9614 14.7783H61.2406C60.8454 14.7783 60.5414 14.4591 60.5414 14.0791V10.9023C60.5414 10.5071 60.8606 10.2031 61.2406 10.2031H63.9614C64.3566 10.2031 64.6606 10.5223 64.6606 10.9023V14.0791C64.6606 14.4591 64.3566 14.7783 63.9614 14.7783Z" stroke="white" stroke-width="0.456" stroke-miterlimit="10" stroke-linecap="round" stroke-linejoin="round"/>
<path d="M62.6086 12.6975C63.0116 12.6975 63.3382 12.3708 63.3382 11.9679C63.3382 11.5649 63.0116 11.2383 62.6086 11.2383C62.2057 11.2383 61.879 11.5649 61.879 11.9679C61.879 12.3708 62.2057 12.6975 62.6086 12.6975Z" stroke="white" stroke-width="0.456" stroke-miterlimit="10" stroke-linecap="round" stroke-linejoin="round"/>
<path d="M61.2258 14.7074C61.2258 13.9474 61.849 13.3242 62.609 13.3242C63.369 13.3242 63.9922 13.9474 63.9922 14.7074" stroke="white" stroke-width="0.456" stroke-miterlimit="10" stroke-linecap="round" stroke-linejoin="round"/>
<path d="M6.7136 25.7396L7.50527 24.9479C7.58166 24.8715 7.61985 24.7743 7.61985 24.6562C7.61985 24.5382 7.58166 24.441 7.50527 24.3646C7.42888 24.2882 7.33166 24.25 7.2136 24.25C7.09555 24.25 6.99832 24.2882 6.92194 24.3646L5.8386 25.4479C5.75527 25.5312 5.7136 25.6285 5.7136 25.7396C5.7136 25.8507 5.75527 25.9479 5.8386 26.0312L6.92194 27.1146C6.99832 27.191 7.09555 27.2292 7.2136 27.2292C7.33166 27.2292 7.42888 27.191 7.50527 27.1146C7.58166 27.0382 7.61985 26.941 7.61985 26.8229C7.61985 26.7049 7.58166 26.6076 7.50527 26.5312L6.7136 25.7396ZM12.7136 25.7396L11.9219 26.5312C11.8455 26.6076 11.8074 26.7049 11.8074 26.8229C11.8074 26.941 11.8455 27.0382 11.9219 27.1146C11.9983 27.191 12.0955 27.2292 12.2136 27.2292C12.3317 27.2292 12.4289 27.191 12.5053 27.1146L13.5886 26.0312C13.6719 25.9479 13.7136 25.8507 13.7136 25.7396C13.7136 25.6285 13.6719 25.5312 13.5886 25.4479L12.5053 24.3646C12.4289 24.2882 12.3317 24.25 12.2136 24.25C12.0955 24.25 11.9983 24.2882 11.9219 24.3646C11.8455 24.441 11.8074 24.5382 11.8074 24.6562C11.8074 24.7743 11.8455 24.8715 11.9219 24.9479L12.7136 25.7396ZM8.4636 29.9062C8.34555 29.9062 8.24666 29.8662 8.16694 29.7862C8.08721 29.7062 8.04721 29.6074 8.04694 29.4896V29.0729H6.38027C6.1511 29.0729 5.95499 28.9914 5.79194 28.8283C5.62888 28.6653 5.54721 28.469 5.54694 28.2396V23.2396C5.54694 23.0104 5.6286 22.8143 5.79194 22.6513C5.95527 22.4882 6.15138 22.4065 6.38027 22.4062H13.0469C13.2761 22.4062 13.4724 22.4879 13.6357 22.6513C13.799 22.8146 13.8805 23.0107 13.8803 23.2396V28.2396C13.8803 28.4688 13.7987 28.665 13.6357 28.8283C13.4726 28.9917 13.2764 29.0732 13.0469 29.0729H11.3803V29.4896C11.3803 29.6076 11.3403 29.7067 11.2603 29.7867C11.1803 29.8667 11.0814 29.9065 10.9636 29.9062H8.4636Z" fill="#645AFF"/>
</svg>
