<svg width="75" height="75" viewBox="0 0 75 75" fill="none" xmlns="http://www.w3.org/2000/svg">
<path d="M57.7103 63.2812H58.5939C61.7019 63.2812 64.6826 62.0466 66.8803 59.8489C69.078 57.6512 70.3126 54.6705 70.3126 51.5625V36.3281C70.3126 34.7741 69.6953 33.2838 68.5964 32.1849C67.4976 31.0861 66.0072 30.4688 64.4532 30.4688H51.8509C50.2969 30.4688 48.8065 31.0861 47.7077 32.1849C46.6088 33.2838 45.9915 34.7741 45.9915 36.3281V51.5625C45.9915 54.6705 47.2262 57.6512 49.4239 59.8489C51.6216 62.0466 54.6023 63.2812 57.7103 63.2812Z" fill="url(#paint0_linear_2474_1008)"/>
<path d="M57.7103 63.2812H58.5939C61.7019 63.2812 64.6826 62.0466 66.8803 59.8489C69.078 57.6512 70.3126 54.6705 70.3126 51.5625V36.3281C70.3126 34.7741 69.6953 33.2838 68.5964 32.1849C67.4976 31.0861 66.0072 30.4688 64.4532 30.4688H51.8509C50.2969 30.4688 48.8065 31.0861 47.7077 32.1849C46.6088 33.2838 45.9915 34.7741 45.9915 36.3281V51.5625C45.9915 54.6705 47.2262 57.6512 49.4239 59.8489C51.6216 62.0466 54.6023 63.2812 57.7103 63.2812Z" fill="url(#paint1_radial_2474_1008)" fill-opacity="0.5"/>
<path d="M16.4062 63.2812H17.2898C20.3978 63.2812 23.3786 62.0466 25.5763 59.8489C27.7739 57.6512 29.0086 54.6705 29.0086 51.5625V36.3281C29.0086 35.5587 28.857 34.7967 28.5626 34.0858C28.2681 33.3749 27.8365 32.729 27.2924 32.1849C26.7483 31.6408 26.1024 31.2092 25.3915 30.9148C24.6806 30.6203 23.9187 30.4688 23.1492 30.4688H10.5469C8.99287 30.4688 7.50252 31.0861 6.40367 32.1849C5.30483 33.2838 4.6875 34.7741 4.6875 36.3281V51.5625C4.6875 54.6705 5.92215 57.6512 8.11984 59.8489C10.3175 62.0466 13.2982 63.2812 16.4062 63.2812Z" fill="url(#paint2_linear_2474_1008)"/>
<path d="M16.4062 63.2812H17.2898C20.3978 63.2812 23.3786 62.0466 25.5763 59.8489C27.7739 57.6512 29.0086 54.6705 29.0086 51.5625V36.3281C29.0086 35.5587 28.857 34.7967 28.5626 34.0858C28.2681 33.3749 27.8365 32.729 27.2924 32.1849C26.7483 31.6408 26.1024 31.2092 25.3915 30.9148C24.6806 30.6203 23.9187 30.4688 23.1492 30.4688H10.5469C8.99287 30.4688 7.50252 31.0861 6.40367 32.1849C5.30483 33.2838 4.6875 34.7741 4.6875 36.3281V51.5625C4.6875 54.6705 5.92215 57.6512 8.11984 59.8489C10.3175 62.0466 13.2982 63.2812 16.4062 63.2812Z" fill="url(#paint3_radial_2474_1008)" fill-opacity="0.5"/>
<path d="M29.2969 30.4688C27.7429 30.4688 26.2525 31.0861 25.1537 32.1849C24.0548 33.2838 23.4375 34.7741 23.4375 36.3281V53.9062C23.4375 57.6359 24.9191 61.2127 27.5563 63.8499C30.1935 66.4872 33.7704 67.9688 37.5 67.9688C41.2296 67.9688 44.8065 66.4872 47.4437 63.8499C50.0809 61.2127 51.5625 57.6359 51.5625 53.9062V36.3281C51.5625 34.7741 50.9452 33.2838 49.8463 32.1849C48.7475 31.0861 47.2571 30.4688 45.7031 30.4688H29.2969Z" fill="url(#paint4_linear_2474_1008)"/>
<path d="M29.2969 30.4688C27.7429 30.4688 26.2525 31.0861 25.1537 32.1849C24.0548 33.2838 23.4375 34.7741 23.4375 36.3281V53.9062C23.4375 57.6359 24.9191 61.2127 27.5563 63.8499C30.1935 66.4872 33.7704 67.9688 37.5 67.9688C41.2296 67.9688 44.8065 66.4872 47.4437 63.8499C50.0809 61.2127 51.5625 57.6359 51.5625 53.9062V36.3281C51.5625 34.7741 50.9452 33.2838 49.8463 32.1849C48.7475 31.0861 47.2571 30.4688 45.7031 30.4688H29.2969Z" fill="url(#paint5_linear_2474_1008)"/>
<path d="M67.9688 17.5781C67.9688 18.6554 67.7566 19.7221 67.3443 20.7173C66.9321 21.7126 66.3278 22.6169 65.5661 23.3786C64.8044 24.1403 63.9001 24.7446 62.9048 25.1568C61.9096 25.5691 60.8429 25.7812 59.7656 25.7812C58.6884 25.7812 57.6217 25.5691 56.6264 25.1568C55.6312 24.7446 54.7269 24.1403 53.9651 23.3786C53.2034 22.6169 52.5992 21.7126 52.1869 20.7173C51.7747 19.7221 51.5625 18.6554 51.5625 17.5781C51.5625 15.4025 52.4268 13.316 53.9651 11.7776C55.5035 10.2393 57.59 9.375 59.7656 9.375C61.9412 9.375 64.0277 10.2393 65.5661 11.7776C67.1045 13.316 67.9688 15.4025 67.9688 17.5781Z" fill="url(#paint6_linear_2474_1008)"/>
<path d="M23.4375 17.5781C23.4375 18.6554 23.2253 19.7221 22.8131 20.7173C22.4008 21.7126 21.7966 22.6169 21.0349 23.3786C20.2731 24.1403 19.3688 24.7446 18.3736 25.1568C17.3783 25.5691 16.3116 25.7812 15.2344 25.7812C14.1571 25.7812 13.0904 25.5691 12.0952 25.1568C11.0999 24.7446 10.1956 24.1403 9.43389 23.3786C8.67216 22.6169 8.06792 21.7126 7.65568 20.7173C7.24343 19.7221 7.03125 18.6554 7.03125 17.5781C7.03125 15.4025 7.89551 13.316 9.43389 11.7776C10.9723 10.2393 13.0588 9.375 15.2344 9.375C17.41 9.375 19.4965 10.2393 21.0349 11.7776C22.5732 13.316 23.4375 15.4025 23.4375 17.5781Z" fill="url(#paint7_linear_2474_1008)"/>
<path d="M37.5 25.7812C39.9864 25.7812 42.371 24.7935 44.1291 23.0354C45.8873 21.2772 46.875 18.8927 46.875 16.4062C46.875 13.9198 45.8873 11.5353 44.1291 9.77712C42.371 8.01897 39.9864 7.03125 37.5 7.03125C35.0136 7.03125 32.629 8.01897 30.8709 9.77712C29.1127 11.5353 28.125 13.9198 28.125 16.4062C28.125 18.8927 29.1127 21.2772 30.8709 23.0354C32.629 24.7935 35.0136 25.7812 37.5 25.7812Z" fill="url(#paint8_linear_2474_1008)"/>
<defs>
<linearGradient id="paint0_linear_2474_1008" x1="51.7759" y1="34.8305" x2="70.1017" y2="56.5195" gradientUnits="userSpaceOnUse">
<stop offset="0.125" stop-color="#E40C5B"/>
<stop offset="1" stop-color="#645AFF"/>
</linearGradient>
<radialGradient id="paint1_radial_2474_1008" cx="0" cy="0" r="1" gradientUnits="userSpaceOnUse" gradientTransform="translate(42.1689 46.1062) scale(19.5722 44.7954)">
<stop offset="0.433" stop-color="#3B148A"/>
<stop offset="1" stop-color="#3B148A" stop-opacity="0"/>
</radialGradient>
<linearGradient id="paint2_linear_2474_1008" x1="10.4719" y1="34.8305" x2="28.7977" y2="56.5219" gradientUnits="userSpaceOnUse">
<stop offset="0.125" stop-color="#645AFF"/>
<stop offset="1" stop-color="#FF4C3B"/>
</linearGradient>
<radialGradient id="paint3_radial_2474_1008" cx="0" cy="0" r="1" gradientUnits="userSpaceOnUse" gradientTransform="translate(36.8883 46.1062) rotate(180) scale(21.6599 49.5736)">
<stop offset="0.433" stop-color="#3B148A"/>
<stop offset="1" stop-color="#3B148A" stop-opacity="0"/>
</radialGradient>
<linearGradient id="paint4_linear_2474_1008" x1="30.1266" y1="35.4539" x2="51.0281" y2="60.4852" gradientUnits="userSpaceOnUse">
<stop offset="0.125" stop-color="#FF4C3B"/>
<stop offset="1" stop-color="#E40C5B"/>
</linearGradient>
<linearGradient id="paint5_linear_2474_1008" x1="37.5" y1="26.0039" x2="69.6211" y2="71.0156" gradientUnits="userSpaceOnUse">
<stop stop-color="#885EDB" stop-opacity="0"/>
<stop offset="1" stop-color="#E362F8"/>
</linearGradient>
<linearGradient id="paint6_linear_2474_1008" x1="55.4648" y1="11.557" x2="63.825" y2="24.907" gradientUnits="userSpaceOnUse">
<stop offset="0.125" stop-color="#E40C5B"/>
<stop offset="1" stop-color="#AF0443"/>
</linearGradient>
<linearGradient id="paint7_linear_2474_1008" x1="10.9336" y1="11.557" x2="19.2938" y2="24.907" gradientUnits="userSpaceOnUse">
<stop offset="0.125" stop-color="#FF4C3B"/>
<stop offset="1" stop-color="#645AFF"/>
</linearGradient>
<linearGradient id="paint8_linear_2474_1008" x1="32.5828" y1="9.52266" x2="42.1406" y2="24.7828" gradientUnits="userSpaceOnUse">
<stop offset="0.125" stop-color="#FF4C3B"/>
<stop offset="1" stop-color="#E40C5B"/>
</linearGradient>
</defs>
</svg>
