<svg width="338" height="210" viewBox="0 0 338 210" fill="none" xmlns="http://www.w3.org/2000/svg">
<g filter="url(#filter0_i_2617_1184)">
<ellipse cx="168.5" cy="105" rx="109.5" ry="76" fill="white"/>
</g>
<path d="M107.164 118.5H103.096V93.372H113.932C116.188 93.372 117.964 94.056 119.26 95.424C120.556 96.768 121.204 98.604 121.204 100.932C121.204 102.732 120.784 104.232 119.944 105.432C119.128 106.608 117.916 107.436 116.308 107.916L121.744 118.5H117.208L112.168 108.348H107.164V118.5ZM113.644 104.928C114.676 104.928 115.48 104.664 116.056 104.136C116.632 103.584 116.92 102.804 116.92 101.796V100.068C116.92 99.06 116.632 98.292 116.056 97.764C115.48 97.212 114.676 96.936 113.644 96.936H107.164V104.928H113.644ZM133.215 118.932C131.871 118.932 130.671 118.704 129.615 118.248C128.559 117.792 127.659 117.144 126.915 116.304C126.171 115.44 125.595 114.408 125.187 113.208C124.803 111.984 124.611 110.628 124.611 109.14C124.611 107.652 124.803 106.308 125.187 105.108C125.595 103.884 126.171 102.852 126.915 102.012C127.659 101.148 128.559 100.488 129.615 100.032C130.671 99.576 131.871 99.348 133.215 99.348C134.583 99.348 135.783 99.588 136.815 100.068C137.871 100.548 138.747 101.22 139.443 102.084C140.139 102.924 140.655 103.908 140.991 105.036C141.351 106.164 141.531 107.376 141.531 108.672V110.148H128.679V110.76C128.679 112.2 129.099 113.388 129.939 114.324C130.803 115.236 132.027 115.692 133.611 115.692C134.763 115.692 135.735 115.44 136.527 114.936C137.319 114.432 137.991 113.748 138.543 112.884L140.847 115.152C140.151 116.304 139.143 117.228 137.823 117.924C136.503 118.596 134.967 118.932 133.215 118.932ZM133.215 102.408C132.543 102.408 131.919 102.528 131.343 102.768C130.791 103.008 130.311 103.344 129.903 103.776C129.519 104.208 129.219 104.724 129.003 105.324C128.787 105.924 128.679 106.584 128.679 107.304V107.556H137.391V107.196C137.391 105.756 137.019 104.604 136.275 103.74C135.531 102.852 134.511 102.408 133.215 102.408ZM162.29 120.264C162.29 122.208 161.546 123.672 160.058 124.656C158.57 125.64 156.146 126.132 152.786 126.132C151.25 126.132 149.942 126.024 148.862 125.808C147.806 125.616 146.93 125.328 146.234 124.944C145.562 124.56 145.07 124.092 144.758 123.54C144.446 122.988 144.29 122.352 144.29 121.632C144.29 120.6 144.566 119.796 145.118 119.22C145.694 118.644 146.486 118.248 147.494 118.032V117.636C146.078 117.18 145.37 116.22 145.37 114.756C145.37 113.796 145.694 113.064 146.342 112.56C146.99 112.032 147.77 111.66 148.682 111.444V111.3C147.578 110.772 146.726 110.04 146.126 109.104C145.55 108.144 145.262 107.028 145.262 105.756C145.262 103.836 145.898 102.288 147.17 101.112C148.466 99.936 150.314 99.348 152.714 99.348C154.034 99.348 155.162 99.54 156.098 99.924V99.42C156.098 98.58 156.29 97.932 156.674 97.476C157.082 96.996 157.706 96.756 158.546 96.756H161.426V99.924H157.61V100.68C158.45 101.232 159.098 101.952 159.554 102.84C160.01 103.704 160.238 104.676 160.238 105.756C160.238 107.652 159.59 109.188 158.294 110.364C156.998 111.516 155.15 112.092 152.75 112.092C151.838 112.092 151.022 111.996 150.302 111.804C149.822 111.972 149.402 112.212 149.042 112.524C148.682 112.812 148.502 113.196 148.502 113.676C148.502 114.18 148.73 114.54 149.186 114.756C149.642 114.972 150.29 115.08 151.13 115.08H155.738C158.042 115.08 159.71 115.548 160.742 116.484C161.774 117.396 162.29 118.656 162.29 120.264ZM158.618 120.696C158.618 120.048 158.366 119.532 157.862 119.148C157.382 118.764 156.494 118.572 155.198 118.572H148.862C147.998 119.076 147.566 119.796 147.566 120.732C147.566 121.5 147.866 122.112 148.466 122.568C149.09 123.048 150.134 123.288 151.598 123.288H154.046C157.094 123.288 158.618 122.424 158.618 120.696ZM152.75 109.248C153.902 109.248 154.79 108.996 155.414 108.492C156.062 107.964 156.386 107.16 156.386 106.08V105.36C156.386 104.28 156.062 103.488 155.414 102.984C154.79 102.456 153.902 102.192 152.75 102.192C151.598 102.192 150.698 102.456 150.05 102.984C149.426 103.488 149.114 104.28 149.114 105.36V106.08C149.114 107.16 149.426 107.964 150.05 108.492C150.698 108.996 151.598 109.248 152.75 109.248ZM167.19 96.432C166.374 96.432 165.774 96.24 165.39 95.856C165.03 95.472 164.85 94.98 164.85 94.38V93.768C164.85 93.168 165.03 92.676 165.39 92.292C165.774 91.908 166.374 91.716 167.19 91.716C168.006 91.716 168.594 91.908 168.954 92.292C169.314 92.676 169.494 93.168 169.494 93.768V94.38C169.494 94.98 169.314 95.472 168.954 95.856C168.594 96.24 168.006 96.432 167.19 96.432ZM165.21 99.78H169.134V118.5H165.21V99.78ZM180.678 118.932C178.902 118.932 177.414 118.62 176.214 117.996C175.014 117.372 173.97 116.508 173.082 115.404L175.602 113.1C176.298 113.94 177.066 114.6 177.906 115.08C178.77 115.536 179.766 115.764 180.894 115.764C182.046 115.764 182.898 115.548 183.45 115.116C184.026 114.66 184.314 114.036 184.314 113.244C184.314 112.644 184.11 112.14 183.702 111.732C183.318 111.3 182.634 111.024 181.65 110.904L179.922 110.688C178.002 110.448 176.49 109.896 175.386 109.032C174.306 108.144 173.766 106.836 173.766 105.108C173.766 104.196 173.934 103.392 174.27 102.696C174.606 101.976 175.074 101.376 175.674 100.896C176.298 100.392 177.03 100.008 177.87 99.744C178.734 99.48 179.682 99.348 180.714 99.348C182.394 99.348 183.762 99.612 184.818 100.14C185.898 100.668 186.858 101.4 187.698 102.336L185.286 104.64C184.806 104.064 184.17 103.572 183.378 103.164C182.61 102.732 181.722 102.516 180.714 102.516C179.634 102.516 178.83 102.732 178.302 103.164C177.798 103.596 177.546 104.16 177.546 104.856C177.546 105.576 177.774 106.116 178.23 106.476C178.686 106.836 179.418 107.1 180.426 107.268L182.154 107.484C184.218 107.796 185.718 108.408 186.654 109.32C187.614 110.208 188.094 111.408 188.094 112.92C188.094 113.832 187.914 114.66 187.554 115.404C187.218 116.124 186.726 116.748 186.078 117.276C185.43 117.804 184.65 118.212 183.738 118.5C182.826 118.788 181.806 118.932 180.678 118.932ZM197.465 118.5C196.097 118.5 195.065 118.152 194.369 117.456C193.673 116.736 193.325 115.728 193.325 114.432V102.984H190.409V99.78H191.993C192.641 99.78 193.085 99.636 193.325 99.348C193.589 99.06 193.721 98.592 193.721 97.944V94.668H197.249V99.78H201.173V102.984H197.249V115.296H200.885V118.5H197.465ZM212.632 118.932C211.288 118.932 210.088 118.704 209.032 118.248C207.976 117.792 207.076 117.144 206.332 116.304C205.588 115.44 205.012 114.408 204.604 113.208C204.22 111.984 204.028 110.628 204.028 109.14C204.028 107.652 204.22 106.308 204.604 105.108C205.012 103.884 205.588 102.852 206.332 102.012C207.076 101.148 207.976 100.488 209.032 100.032C210.088 99.576 211.288 99.348 212.632 99.348C214 99.348 215.2 99.588 216.232 100.068C217.288 100.548 218.164 101.22 218.86 102.084C219.556 102.924 220.072 103.908 220.408 105.036C220.768 106.164 220.948 107.376 220.948 108.672V110.148H208.096V110.76C208.096 112.2 208.516 113.388 209.356 114.324C210.22 115.236 211.444 115.692 213.028 115.692C214.18 115.692 215.152 115.44 215.944 114.936C216.736 114.432 217.408 113.748 217.96 112.884L220.264 115.152C219.568 116.304 218.56 117.228 217.24 117.924C215.92 118.596 214.384 118.932 212.632 118.932ZM212.632 102.408C211.96 102.408 211.336 102.528 210.76 102.768C210.208 103.008 209.728 103.344 209.32 103.776C208.936 104.208 208.636 104.724 208.42 105.324C208.204 105.924 208.096 106.584 208.096 107.304V107.556H216.808V107.196C216.808 105.756 216.436 104.604 215.692 103.74C214.948 102.852 213.928 102.408 212.632 102.408ZM225.292 118.5V99.78H229.216V103.38H229.396C229.66 102.42 230.212 101.58 231.052 100.86C231.892 100.14 233.056 99.78 234.544 99.78H235.588V103.56H234.04C232.48 103.56 231.28 103.812 230.44 104.316C229.624 104.82 229.216 105.564 229.216 106.548V118.5H225.292Z" fill="#E40C5B"/>
<defs>
<filter id="filter0_i_2617_1184" x="59" y="29" width="220" height="153" filterUnits="userSpaceOnUse" color-interpolation-filters="sRGB">
<feFlood flood-opacity="0" result="BackgroundImageFix"/>
<feBlend mode="normal" in="SourceGraphic" in2="BackgroundImageFix" result="shape"/>
<feColorMatrix in="SourceAlpha" type="matrix" values="0 0 0 0 0 0 0 0 0 0 0 0 0 0 0 0 0 0 127 0" result="hardAlpha"/>
<feMorphology radius="4" operator="erode" in="SourceAlpha" result="effect1_innerShadow_2617_1184"/>
<feOffset dx="1" dy="1"/>
<feGaussianBlur stdDeviation="4.6"/>
<feComposite in2="hardAlpha" operator="arithmetic" k2="-1" k3="1"/>
<feColorMatrix type="matrix" values="0 0 0 0 0 0 0 0 0 0 0 0 0 0 0 0 0 0 0.25 0"/>
<feBlend mode="normal" in2="shape" result="effect1_innerShadow_2617_1184"/>
</filter>
</defs>
</svg>
