<svg width="140" height="97" viewBox="0 0 140 97" fill="none" xmlns="http://www.w3.org/2000/svg">
<g filter="url(#filter0_i_2921_1218)">
<ellipse cx="69.8783" cy="48.5" rx="69.8783" ry="48.5" fill="white"/>
</g>
<path d="M30.7358 57.5H28.1398V41.4644H35.0549C36.4946 41.4644 37.6279 41.9009 38.455 42.7739C39.282 43.6316 39.6956 44.8032 39.6956 46.2888C39.6956 47.4375 39.4275 48.3948 38.8915 49.1606C38.3707 49.911 37.5973 50.4394 36.5711 50.7457L40.0402 57.5H37.1455L33.9292 51.0214H30.7358V57.5ZM34.8711 48.8389C35.5297 48.8389 36.0427 48.6704 36.4103 48.3335C36.7779 47.9812 36.9617 47.4835 36.9617 46.8402V45.7375C36.9617 45.0942 36.7779 44.6041 36.4103 44.2672C36.0427 43.9149 35.5297 43.7388 34.8711 43.7388H30.7358V48.8389H34.8711ZM47.3602 57.7757C46.5025 57.7757 45.7367 57.6302 45.0628 57.3392C44.3889 57.0482 43.8146 56.6347 43.3398 56.0986C42.865 55.5472 42.4974 54.8887 42.237 54.1229C41.992 53.3418 41.8694 52.4764 41.8694 51.5268C41.8694 50.5773 41.992 49.7196 42.237 48.9538C42.4974 48.1727 42.865 47.5141 43.3398 46.9781C43.8146 46.4267 44.3889 46.0055 45.0628 45.7145C45.7367 45.4235 46.5025 45.278 47.3602 45.278C48.2332 45.278 48.9989 45.4312 49.6575 45.7375C50.3314 46.0438 50.8904 46.4726 51.3346 47.024C51.7788 47.5601 52.1081 48.188 52.3225 48.9078C52.5522 49.6277 52.6671 50.4011 52.6671 51.2282V52.1701H44.4655V52.5607C44.4655 53.4796 44.7335 54.2377 45.2696 54.8351C45.8209 55.4171 46.602 55.7081 47.6129 55.7081C48.348 55.7081 48.9683 55.5472 49.4737 55.2256C49.9792 54.904 50.408 54.4675 50.7603 53.9161L52.2306 55.3634C51.7864 56.0986 51.1432 56.6883 50.3008 57.1324C49.4584 57.5613 48.4782 57.7757 47.3602 57.7757ZM47.3602 47.2308C46.9313 47.2308 46.5331 47.3073 46.1655 47.4605C45.8133 47.6137 45.5069 47.8281 45.2466 48.1038C45.0015 48.3794 44.8101 48.7087 44.6722 49.0916C44.5344 49.4745 44.4655 49.8957 44.4655 50.3552V50.516H50.0251V50.2863C50.0251 49.3673 49.7877 48.6322 49.3129 48.0808C48.8381 47.5141 48.1872 47.2308 47.3602 47.2308ZM65.9152 58.6257C65.9152 59.8663 65.4404 60.8006 64.4908 61.4285C63.5412 62.0564 61.9943 62.3704 59.8501 62.3704C58.8699 62.3704 58.0352 62.3015 57.346 62.1637C56.6721 62.0411 56.1131 61.8573 55.6689 61.6123C55.2401 61.3672 54.9261 61.0686 54.727 60.7163C54.5279 60.3641 54.4283 59.9582 54.4283 59.4987C54.4283 58.8401 54.6045 58.3271 54.9567 57.9595C55.3243 57.5919 55.8297 57.3392 56.473 57.2013V56.9486C55.5694 56.6576 55.1175 56.045 55.1175 55.1107C55.1175 54.4981 55.3243 54.031 55.7378 53.7093C56.1514 53.3724 56.6491 53.135 57.2311 52.9972V52.9053C56.5266 52.5683 55.9829 52.1012 55.6 51.5039C55.2324 50.8912 55.0486 50.1791 55.0486 49.3673C55.0486 48.1421 55.4545 47.1542 56.2662 46.4037C57.0933 45.6532 58.2726 45.278 59.8042 45.278C60.6465 45.278 61.3664 45.4005 61.9637 45.6456V45.3239C61.9637 44.7879 62.0862 44.3744 62.3313 44.0834C62.5917 43.7771 62.9899 43.6239 63.5259 43.6239H65.3638V45.6456H62.9286V46.128C63.4647 46.4803 63.8782 46.9398 64.1692 47.5064C64.4602 48.0578 64.6057 48.6781 64.6057 49.3673C64.6057 50.5773 64.1922 51.5575 63.3651 52.3079C62.538 53.0431 61.3587 53.4107 59.8272 53.4107C59.2452 53.4107 58.7244 53.3494 58.2649 53.2269C57.9586 53.3341 57.6906 53.4873 57.4609 53.6864C57.2311 53.8702 57.1163 54.1152 57.1163 54.4215C57.1163 54.7432 57.2618 54.9729 57.5528 55.1107C57.8438 55.2486 58.2573 55.3175 58.7933 55.3175H61.734C63.2043 55.3175 64.2687 55.6162 64.9273 56.2135C65.5859 56.7955 65.9152 57.5996 65.9152 58.6257ZM63.5719 58.9014C63.5719 58.4879 63.411 58.1586 63.0894 57.9135C62.7831 57.6685 62.2164 57.5459 61.3894 57.5459H57.346C56.7946 57.8676 56.5189 58.3271 56.5189 58.9244C56.5189 59.4145 56.7104 59.805 57.0933 60.096C57.4915 60.4023 58.1577 60.5555 59.092 60.5555H60.6542C62.5993 60.5555 63.5719 60.0041 63.5719 58.9014ZM59.8272 51.5958C60.5623 51.5958 61.129 51.4349 61.5272 51.1133C61.9407 50.7764 62.1475 50.2633 62.1475 49.5741V49.1146C62.1475 48.4254 61.9407 47.92 61.5272 47.5983C61.129 47.2614 60.5623 47.0929 59.8272 47.0929C59.092 47.0929 58.5177 47.2614 58.1041 47.5983C57.7059 47.92 57.5068 48.4254 57.5068 49.1146V49.5741C57.5068 50.2633 57.7059 50.7764 58.1041 51.1133C58.5177 51.4349 59.092 51.5958 59.8272 51.5958ZM69.0421 43.4171C68.5214 43.4171 68.1385 43.2946 67.8934 43.0496C67.6637 42.8045 67.5488 42.4905 67.5488 42.1076V41.7171C67.5488 41.3342 67.6637 41.0202 67.8934 40.7752C68.1385 40.5301 68.5214 40.4076 69.0421 40.4076C69.5628 40.4076 69.9381 40.5301 70.1678 40.7752C70.3976 41.0202 70.5124 41.3342 70.5124 41.7171V42.1076C70.5124 42.4905 70.3976 42.8045 70.1678 43.0496C69.9381 43.2946 69.5628 43.4171 69.0421 43.4171ZM67.7786 45.5537H70.2827V57.5H67.7786V45.5537ZM77.6492 57.7757C76.5158 57.7757 75.5662 57.5766 74.8004 57.1784C74.0346 56.7802 73.3684 56.2288 72.8017 55.5243L74.4099 54.0539C74.854 54.59 75.3441 55.0112 75.8802 55.3175C76.4316 55.6085 77.0672 55.754 77.787 55.754C78.5222 55.754 79.0659 55.6162 79.4181 55.3405C79.7857 55.0495 79.9695 54.6513 79.9695 54.1458C79.9695 53.7629 79.8393 53.4413 79.579 53.1809C79.3339 52.9053 78.8974 52.7291 78.2695 52.6526L77.1667 52.5147C75.9415 52.3616 74.9766 52.0093 74.272 51.4579C73.5828 50.8912 73.2382 50.0565 73.2382 48.9538C73.2382 48.3718 73.3454 47.8587 73.5599 47.4146C73.7743 46.9551 74.0729 46.5722 74.4558 46.2659C74.854 45.9442 75.3212 45.6992 75.8572 45.5307C76.4086 45.3622 77.0136 45.278 77.6721 45.278C78.7442 45.278 79.6172 45.4465 80.2911 45.7834C80.9804 46.1204 81.593 46.5875 82.129 47.1848L80.5898 48.6551C80.2835 48.2876 79.8776 47.9736 79.3722 47.7132C78.8821 47.4375 78.3154 47.2997 77.6721 47.2997C76.9829 47.2997 76.4699 47.4375 76.1329 47.7132C75.8113 47.9889 75.6505 48.3488 75.6505 48.793C75.6505 49.2524 75.796 49.5971 76.087 49.8268C76.378 50.0565 76.8451 50.225 77.4884 50.3322L78.5911 50.4701C79.9082 50.6692 80.8655 51.0597 81.4628 51.6417C82.0754 52.2084 82.3817 52.9742 82.3817 53.9391C82.3817 54.5211 82.2669 55.0495 82.0371 55.5243C81.8227 55.9837 81.5087 56.3819 81.0952 56.7189C80.6817 57.0558 80.1839 57.3162 79.6019 57.5C79.0199 57.6838 78.369 57.7757 77.6492 57.7757ZM88.3619 57.5C87.4889 57.5 86.8303 57.2779 86.3862 56.8338C85.942 56.3743 85.7199 55.731 85.7199 54.904V47.5983H83.8591V45.5537H84.8699C85.2834 45.5537 85.5668 45.4618 85.7199 45.278C85.8884 45.0942 85.9726 44.7956 85.9726 44.382V42.2914H88.2241V45.5537H90.7282V47.5983H88.2241V55.4553H90.5444V57.5H88.3619ZM98.0414 57.7757C97.1837 57.7757 96.4179 57.6302 95.744 57.3392C95.0701 57.0482 94.4958 56.6347 94.021 56.0986C93.5462 55.5472 93.1786 54.8887 92.9182 54.1229C92.6732 53.3418 92.5507 52.4764 92.5507 51.5268C92.5507 50.5773 92.6732 49.7196 92.9182 48.9538C93.1786 48.1727 93.5462 47.5141 94.021 46.9781C94.4958 46.4267 95.0701 46.0055 95.744 45.7145C96.4179 45.4235 97.1837 45.278 98.0414 45.278C98.9144 45.278 99.6802 45.4312 100.339 45.7375C101.013 46.0438 101.572 46.4726 102.016 47.024C102.46 47.5601 102.789 48.188 103.004 48.9078C103.233 49.6277 103.348 50.4011 103.348 51.2282V52.1701H95.1467V52.5607C95.1467 53.4796 95.4147 54.2377 95.9508 54.8351C96.5021 55.4171 97.2832 55.7081 98.2941 55.7081C99.0292 55.7081 99.6495 55.5472 100.155 55.2256C100.66 54.904 101.089 54.4675 101.441 53.9161L102.912 55.3634C102.468 56.0986 101.824 56.6883 100.982 57.1324C100.14 57.5613 99.1594 57.7757 98.0414 57.7757ZM98.0414 47.2308C97.6125 47.2308 97.2143 47.3073 96.8467 47.4605C96.4945 47.6137 96.1882 47.8281 95.9278 48.1038C95.6827 48.3794 95.4913 48.7087 95.3534 49.0916C95.2156 49.4745 95.1467 49.8957 95.1467 50.3552V50.516H100.706V50.2863C100.706 49.3673 100.469 48.6322 99.9941 48.0808C99.5193 47.5141 98.8684 47.2308 98.0414 47.2308ZM106.12 57.5V45.5537H108.625V47.8511H108.739C108.908 47.2384 109.26 46.7024 109.796 46.2429C110.332 45.7834 111.075 45.5537 112.025 45.5537H112.691V47.9659H111.703C110.707 47.9659 109.942 48.1267 109.406 48.4484C108.885 48.77 108.625 49.2448 108.625 49.8727V57.5H106.12Z" fill="#E40C5B"/>
<defs>
<filter id="filter0_i_2921_1218" x="0" y="0" width="140.394" height="97.6382" filterUnits="userSpaceOnUse" color-interpolation-filters="sRGB">
<feFlood flood-opacity="0" result="BackgroundImageFix"/>
<feBlend mode="normal" in="SourceGraphic" in2="BackgroundImageFix" result="shape"/>
<feColorMatrix in="SourceAlpha" type="matrix" values="0 0 0 0 0 0 0 0 0 0 0 0 0 0 0 0 0 0 127 0" result="hardAlpha"/>
<feMorphology radius="2.55263" operator="erode" in="SourceAlpha" result="effect1_innerShadow_2921_1218"/>
<feOffset dx="0.638158" dy="0.638158"/>
<feGaussianBlur stdDeviation="2.93553"/>
<feComposite in2="hardAlpha" operator="arithmetic" k2="-1" k3="1"/>
<feColorMatrix type="matrix" values="0 0 0 0 0 0 0 0 0 0 0 0 0 0 0 0 0 0 0.25 0"/>
<feBlend mode="normal" in2="shape" result="effect1_innerShadow_2921_1218"/>
</filter>
</defs>
</svg>
