<svg width="200" height="463" viewBox="0 0 200 463" fill="none" xmlns="http://www.w3.org/2000/svg">
<g clip-path="url(#clip0_2925_687)">
<rect width="200" height="463" rx="15" fill="white"/>
<rect width="200" height="463" rx="15" fill="#645AFF"/>
<path fill-rule="evenodd" clip-rule="evenodd" d="M208.746 402.728C206.569 402.435 204.473 402.13 202.457 401.813C158.103 394.762 153.645 378.992 147.861 366.904C143.16 364.876 140.854 363.244 138.445 354.875C137.406 351.302 135.605 335.444 136.366 329.265C140.012 325.846 142.78 317.163 143.98 313.129C147.216 302.337 148 299.716 151.082 285.336C151.521 283.286 152.686 282.452 153.63 282.1C156.5 281.061 157.159 278.754 158.096 277.049C160.315 273.139 158.411 271.382 161.874 261.842C166.296 250.992 166.984 239.819 163.631 236.612C161.354 234.584 159.97 236.1 158.85 236.51C158.103 236.803 158.682 234.936 159.355 232.278C162.013 221.347 162.028 212.086 162.745 200.884C163.324 191.812 162.716 183.539 161.581 178.407C160.512 177.345 157.752 165.448 154.589 158.493C149.186 146.544 132.991 144.692 127.441 142.298C114.233 136.77 97.7163 129.28 78.1388 137.736C69.4263 141.492 57.8219 141.858 45.1924 156.069C42.2053 159.408 36.8753 156.538 30.9229 169.541C24.8828 182.28 24.5606 190.67 25.937 199.778L25.5197 199.8C25.5197 199.8 25.6735 221.596 28.3458 232.527C29.0047 235.192 29.5685 237.044 28.8363 236.766C27.7235 236.356 26.1933 235.038 23.9163 237.074C20.5485 240.28 22.3349 250.992 26.757 261.842C30.2421 271.382 27.9212 274.222 31.6258 279.245C32.9436 281.031 34.1736 281.976 35.594 282.576C36.5458 282.957 37.8856 283.074 38.5079 285.066C42.586 299.855 43.3401 304.394 47.5792 313.194C49.4095 316.994 51.4669 326.505 55.2594 330.195C55.8817 335.4 55.2374 350.402 54.4174 354.875C53.0995 361.911 50.6322 363.947 44.0063 366.904C40.4042 378.619 30.8497 389.22 -9.11063 401.476C-10.4773 401.896 -11.8708 402.313 -13.2912 402.728C-14.0526 402.982 -27.585 414.655 -53.8885 437.747C-56.126 439.711 -57.7116 442.311 -58.4338 445.199C-59.1559 448.088 -58.9803 451.128 -57.9304 453.914C-56.8805 456.7 -55.0062 459.1 -52.5574 460.794C-50.1086 462.487 -47.2017 463.394 -44.2242 463.394H240.631C243.634 463.395 246.566 462.473 249.027 460.752C251.489 459.031 253.362 456.595 254.392 453.773C255.422 450.952 255.56 447.882 254.786 444.98C254.013 442.077 252.366 439.483 250.068 437.549L208.746 402.728Z" fill="black" fill-opacity="0.33"/>
</g>
<defs>
<clipPath id="clip0_2925_687">
<rect width="200" height="463" rx="15" fill="white"/>
</clipPath>
</defs>
</svg>
