<svg width="128" height="128" viewBox="0 0 128 128" fill="none" xmlns="http://www.w3.org/2000/svg">
<path opacity="0.69" d="M95.6672 38.4878H73.9328C72.0948 38.4878 70.6048 36.9977 70.6048 35.1598C70.6048 33.3218 72.0948 31.8318 73.9328 31.8318H81.28C83.1232 31.8318 84.608 30.347 84.608 28.5038C84.608 26.6606 83.1232 25.1758 81.28 25.1758H48.5888C46.7456 25.1758 45.2608 26.6606 45.2608 28.5038C45.2608 30.347 46.7456 31.8318 48.5888 31.8318H55.68C57.5232 31.8318 59.008 33.3166 59.008 35.1598C59.008 37.003 57.5232 38.4878 55.68 38.4878H32.896C31.0528 38.4878 29.568 39.9726 29.568 41.8158C29.568 43.659 31.0528 45.1438 32.896 45.1438H41.9584C43.8016 45.1438 45.2864 46.6286 45.2864 48.4718C45.2864 50.315 43.8016 51.7998 41.9584 51.7998H38.1312C36.288 51.7998 34.8032 53.2846 34.8032 55.1278C34.8032 56.971 36.288 58.4558 38.1312 58.4558H50.752V65.1118H41.024C39.1808 65.1118 37.696 66.5966 37.696 68.4398C37.696 70.283 39.1808 71.7678 41.024 71.7678H58.7648C60.608 71.7678 62.0928 73.2526 62.0928 75.0958C62.0928 76.939 60.608 78.4238 58.7648 78.4238H48.8448C47.0016 78.4238 45.5168 79.9086 45.5168 81.7518C45.5168 83.595 47.0016 85.0798 48.8448 85.0798H86.8096C88.6528 85.0798 90.1376 83.595 90.1376 81.7518C90.1376 79.9086 88.6528 78.4238 86.8096 78.4238H77.2736V71.7678H80.2944C82.1376 71.7678 83.6224 70.283 83.6224 68.4398C83.6224 66.5966 82.1376 65.1118 80.2944 65.1118H77.2736V58.4558H89.8944C91.7376 58.4558 93.2224 56.971 93.2224 55.1278C93.2224 53.2846 91.7376 51.7998 89.8944 51.7998H84.608C82.77 51.7998 81.28 50.3097 81.28 48.4718C81.28 46.6338 82.77 45.1438 84.608 45.1438H95.6928C97.536 45.1438 99.0208 43.659 99.0208 41.8158C98.9952 39.9854 97.5104 38.4878 95.6672 38.4878Z" fill="#E81557" fill-opacity="0.35"/>
<path d="M66.0224 51.8044H59.2768C57.4336 51.8044 55.9488 50.3196 55.9488 48.4764C55.9488 46.6332 57.4336 45.1484 59.2768 45.1484H66.0224C67.8656 45.1484 69.3504 46.6332 69.3504 48.4764C69.3504 50.3196 67.8656 51.8044 66.0224 51.8044Z" fill="#EC1E52" fill-opacity="0.42"/>
<path opacity="0.69" d="M90.2656 71.7693H94.8992C96.7424 71.7693 98.2272 70.2845 98.2272 68.4413C98.2272 66.5981 96.7424 65.1133 94.8992 65.1133H90.2656C88.4224 65.1133 86.9376 66.5981 86.9376 68.4413C86.9376 70.2845 88.4224 71.7693 90.2656 71.7693Z" fill="#EA1B53" fill-opacity="0.78"/>
<path opacity="0.69" d="M101.555 58.4568H99.968C98.1248 58.4568 96.64 56.972 96.64 55.1288C96.64 53.2856 98.1248 51.8008 99.968 51.8008H101.555C103.398 51.8008 104.883 53.2856 104.883 55.1288C104.883 56.972 103.398 58.4568 101.555 58.4568Z" fill="#EA1B53" fill-opacity="0.78"/>
<path opacity="0.69" d="M34.88 85.0818H41.1008C42.944 85.0818 44.4288 83.597 44.4288 81.7538C44.4288 79.9106 42.944 78.4258 41.1008 78.4258H34.88C33.0368 78.4258 31.552 79.9106 31.552 81.7538C31.552 83.597 33.0368 85.0818 34.88 85.0818Z" fill="#EA1B53" fill-opacity="0.78"/>
<path opacity="0.69" d="M24.9984 45.1443C26.8416 45.1443 28.3264 43.6595 28.3264 41.8163C28.3264 39.9731 26.8416 38.4883 24.9984 38.4883C23.1552 38.4883 21.6704 39.9731 21.6704 41.8163C21.6704 43.6595 23.1552 45.1443 24.9984 45.1443Z" fill="#EA1B53" fill-opacity="0.78"/>
<path opacity="0.5" d="M34.0224 64.8044H30.5408C28.6976 64.8044 27.2128 63.3196 27.2128 61.4764C27.2128 59.6332 28.6976 58.1484 30.5408 58.1484H34.0224C35.8656 58.1484 37.3504 59.6332 37.3504 61.4764C37.3504 63.3068 35.8656 64.8044 34.0224 64.8044Z" fill="#825D7E"/>
<path d="M83.6096 65.113H69.312C67.4688 65.113 65.984 63.6282 65.984 61.785C65.984 59.9418 67.4688 58.457 69.312 58.457H83.6096C85.4528 58.457 86.9376 59.9418 86.9376 61.785C86.9376 63.6282 85.4528 65.113 83.6096 65.113Z" fill="#EC1E52" fill-opacity="0.42"/>
<path d="M49.1776 57.8201H34.88C33.0368 57.8201 31.552 56.3353 31.552 54.4921C31.552 52.6489 33.0368 51.1641 34.88 51.1641H49.1776C51.0208 51.1641 52.5056 52.6489 52.5056 54.4921C52.5056 56.3353 51.0208 57.8201 49.1776 57.8201Z" fill="#684463"/>
<path d="M92.0832 78.4255H77.7856C75.9424 78.4255 74.4576 76.9407 74.4576 75.0975C74.4576 73.2543 75.9424 71.7695 77.7856 71.7695H92.0832C93.9264 71.7695 95.4112 73.2543 95.4112 75.0975C95.4112 76.9407 93.9264 78.4255 92.0832 78.4255Z" fill="#EC1E52" fill-opacity="0.42"/>
<path opacity="0.56" d="M113.69 91.328H14.3104C13.3888 91.328 12.6464 90.5856 12.6464 89.664C12.6464 88.7424 13.3888 88 14.3104 88H113.677C114.598 88 115.341 88.7424 115.341 89.664C115.354 90.5856 114.598 91.328 113.69 91.328Z" fill="#2D4659"/>
<path d="M58.3296 76.7383H55.7696V89.5383H58.3296V76.7383Z" fill="#8BBF98"/>
<path d="M59.8656 76.7383H58.3296V89.5383H59.8656V76.7383Z" fill="#63916E"/>
<path d="M72.6656 76.7383H70.1056V89.5383H72.6656V76.7383Z" fill="#8BBF98"/>
<path d="M74.2016 76.7383H72.6656V89.5383H74.2016V76.7383Z" fill="#63916E"/>
<path d="M83.4176 76.7383H80.8576V89.5383H83.4176V76.7383Z" fill="#8BBF98"/>
<path d="M84.9536 76.7383H83.4176V89.5383H84.9536V76.7383Z" fill="#63916E"/>
<path d="M93.1968 79.2969H91.6608V89.5369H93.1968V79.2969Z" fill="#8BBF98"/>
<path d="M94.2208 79.2969H93.1968V89.5369H94.2208V79.2969Z" fill="#63916E"/>
<path d="M102.912 79.2969H101.376V89.5369H102.912V79.2969Z" fill="#8BBF98"/>
<path d="M103.936 79.2969H102.912V89.5369H103.936V79.2969Z" fill="#63916E"/>
<path d="M103.936 79.2969H102.912V79.8089H103.936V79.2969Z" fill="#55845F"/>
<path d="M102.912 79.2969H101.376V79.8089H102.912V79.2969Z" fill="#63916E"/>
<path d="M98.9952 64.9609H97.4592V89.5369H98.9952V64.9609Z" fill="#8BBF98"/>
<path d="M100.019 64.9609H98.9952V89.5369H100.019V64.9609Z" fill="#63916E"/>
<path d="M108.723 64.9609H107.187V89.5369H108.723V64.9609Z" fill="#8BBF98"/>
<path d="M109.747 64.9609H108.723V89.5369H109.747V64.9609Z" fill="#63916E"/>
<path d="M55.1808 70.0785H52.16V48.0625H55.1808C55.6032 48.0625 55.9488 48.4081 55.9488 48.8305V69.3105C55.9488 69.7329 55.616 70.0785 55.1808 70.0785Z" fill="#EA1B53"/>
<path d="M54.2208 70.0785H22.9888C22.5664 70.0785 22.2208 69.7329 22.2208 69.3105V48.8305C22.2208 48.4081 22.5664 48.0625 22.9888 48.0625H54.2208C54.6432 48.0625 54.9888 48.4081 54.9888 48.8305V69.3105C54.9888 69.7329 54.6432 70.0785 54.2208 70.0785Z" fill="#FC5984"/>
<path d="M53.445 68.534V49.59L23.749 49.5898V68.534H53.445Z" fill="#34515B"/>
<path d="M24.133 68.5338V49.5898H23.749V68.5338H24.133Z" fill="#EA1954"/>
<path d="M53.4528 49.5859H52.9664V68.5299H53.4528V49.5859Z" fill="#284249"/>
<path d="M41.2672 70.0781H38.9376V89.5341H41.2672V70.0781Z" fill="#EA1954"/>
<path d="M40.2944 70.0781H37.9648V89.5341H40.2944V70.0781Z" fill="#EA1B53"/>
<path d="M40.2944 70.0781H37.9648V71.0253H40.2944V70.0781Z" fill="#EA1954"/>
<path d="M48.2048 89.5368H32.4992V88.0008C32.4992 87.156 33.1904 86.4648 34.0352 86.4648H46.6688C47.5136 86.4648 48.2048 87.156 48.2048 88.0008V89.5368Z" fill="#EA1B53"/>
<path d="M46.784 89.5368H31.0784V88.0008C31.0784 87.156 31.7696 86.4648 32.6144 86.4648H45.248C46.0928 86.4648 46.784 87.156 46.784 88.0008V89.5368Z" fill="#FC5984"/>
<path d="M72.6656 74.2891H55.7696V76.7339H72.6656V74.2891Z" fill="#8BBF98"/>
<path d="M84.9536 74.2891H72.6656V76.7339H84.9536V74.2891Z" fill="#63916E"/>
<path d="M71.3856 72.5898H54.8736V74.2922H71.3856V72.5898Z" fill="#9FD6A3"/>
<path d="M72.6656 74.2891H55.7696V74.8011H72.6656V74.2891Z" fill="#63916E"/>
<path d="M86.1824 72.5898H71.3856V74.2922H86.1824V72.5898Z" fill="#83B78D"/>
<path d="M103.219 77.2461H90.9312V79.2941H103.219V77.2461Z" fill="#81B58C"/>
<path d="M110.387 77.2461H103.219V79.2941H110.387V77.2461Z" fill="#63916E"/>
<path d="M107.187 66.2188H98.9952V70.8268H107.187V66.2188Z" fill="#81B58C"/>
<path d="M109.747 79.2969H108.723V79.8089H109.747V79.2969Z" fill="#55845F"/>
<path d="M108.723 79.2969H107.187V79.8089H108.723V79.2969Z" fill="#63916E"/>
<path d="M98.9952 79.2969H97.4592V79.8089H98.9952V79.2969Z" fill="#63916E"/>
<path d="M93.1968 79.2969H91.6608V79.8089H93.1968V79.2969Z" fill="#63916E"/>
<path d="M94.2208 79.2969H93.1968V79.8089H94.2208V79.2969Z" fill="#55845F"/>
<path d="M100.019 79.2969H98.9952V79.8089H100.019V79.2969Z" fill="#55845F"/>
<path d="M84.9536 74.2891H72.6656V74.8011H84.9536V74.2891Z" fill="#577F5D"/>
<path d="M77.404 58.0312L76.2116 58.1918L77.6595 68.9495L78.852 68.789L77.404 58.0312Z" fill="#DD5858"/>
<path d="M77.5163 58.3203L76.1717 58.5013L76.5525 61.3304L77.8971 61.1494L77.5163 58.3203Z" fill="#EA1B53"/>
<path d="M76.2003 58.7383L75.9466 58.7725L75.9706 58.95L76.2243 58.9158L76.2003 58.7383Z" fill="#E8E8E8"/>
<path d="M76.3136 60.9638L76.2368 60.9766L75.968 58.967L76.1472 58.9414L76.4032 60.8486C76.416 60.887 76.3776 60.951 76.3136 60.9638Z" fill="#E8E8E8"/>
<path d="M77.8246 61.1445L76.6322 61.305L76.6509 61.4446L77.8434 61.2841L77.8246 61.1445Z" fill="#D35050"/>
<path d="M74.7136 61.3867L73.6768 61.7067L73.2032 60.1835C73.1392 59.9787 73.2544 59.7611 73.4592 59.6971L73.7664 59.6075C73.9712 59.5435 74.1888 59.6587 74.2528 59.8635L74.7136 61.3867Z" fill="#E8E8E8"/>
<path d="M74.9701 61.3086L73.4309 61.7901L74.2641 64.4533L75.8034 63.9718L74.9701 61.3086Z" fill="#35393D"/>
<path d="M74.112 64.0911L75.3664 62.5167L75.0976 61.6719L73.8432 63.2463L74.112 64.0911Z" fill="#808284"/>
<path d="M75.7258 63.9844L74.3332 64.4201L76.011 69.7832L77.4038 69.3474L75.7258 63.9844Z" fill="#3B4044"/>
<path opacity="0.66" d="M75.0324 64.207L74.5682 64.3523L76.2461 69.7153L76.7103 69.57L75.0324 64.207Z" fill="#6D6F70"/>
<path d="M81.1392 59.3815L80.64 59.3047L80.0128 60.4311L81.4208 60.6359L81.1392 59.3815Z" fill="#C5E1DF"/>
<path d="M79.5392 69.7954L79.168 69.7442C78.8864 69.7058 78.6944 69.437 78.7328 69.1554L80.0256 60.4258L81.4208 60.6306L80.128 69.3602C80.0896 69.6418 79.8208 69.8466 79.5392 69.7954Z" fill="#B3DBAD"/>
<path d="M79.0144 69.7236L78.912 69.7108C78.7712 69.6852 78.6688 69.5572 78.6816 69.4036L80.0128 60.418L80.3712 60.4692L79.0144 69.7236Z" fill="#68A575"/>
<path d="M79.7824 69.8364L79.68 69.8236L81.0496 60.582L81.408 60.6332L80.0768 69.6188C80.064 69.7596 79.936 69.862 79.7824 69.8364Z" fill="#68A575"/>
<path d="M81.1392 59.3794L81.024 58.8674C81.0112 58.7906 80.9216 58.7778 80.8832 58.8418L80.6272 59.3026L81.1392 59.3794Z" fill="#6F5A66"/>
<path d="M81.1392 59.3782L80.896 59.3398L81.0496 60.5814L81.4208 60.6326L81.1392 59.3782Z" fill="#A5CECA"/>
<path d="M81.1392 72.5897H73.9712V65.2169C73.9712 65.0761 74.0864 64.9609 74.2272 64.9609H80.8832C81.024 64.9609 81.1392 65.0761 81.1392 65.2169V72.5897Z" fill="#F2E07C"/>
<path d="M80.1152 64.9609V72.5897H81.1392V65.2169C81.1392 65.0761 81.024 64.9609 80.8832 64.9609H80.1152Z" fill="#DFBB4D"/>
<path d="M76.2112 68.7734H72.2304V72.5878H76.2112V68.7734Z" fill="#6E7EE0"/>
<path d="M72.6656 68.7734H72.2304V72.5878H72.6656V68.7734Z" fill="#7A8CE2"/>
<path d="M75.6294 72.58H76.2054V68.7656H75.6294V72.58Z" fill="#6373C1"/>
<path d="M76.2088 72.58H76.5672V68.7656H76.2088V72.58Z" fill="#DFBB4D"/>
<path d="M63.3472 69.5781H60.352V72.5733H63.3472V69.5781Z" fill="#FC5984"/>
<path d="M63.3472 69.5781H60.352V69.7189H63.3472V69.5781Z" fill="#EA1B53"/>
<path d="M64.9344 69.5781H63.3472V72.5733H64.9344V69.5781Z" fill="#EA1B53"/>
<path d="M67.5968 69.5781H64.6016V72.5733H67.5968V69.5781Z" fill="#E8B58B"/>
<path d="M69.184 69.5781H67.5968V72.5733H69.184V69.5781Z" fill="#E09D6C"/>
<path d="M62.5536 66.582H59.5584V69.5772H62.5536V66.582Z" fill="#1BB1B2"/>
<path d="M64.1408 66.582H62.5536V69.5772H64.1408V66.582Z" fill="#19A5A1"/>
<path d="M35.6992 60.4683C35.776 60.3275 35.84 60.1867 35.904 60.0459C35.968 59.9051 36.032 59.7515 36.0832 59.5979C36.1984 59.3035 36.3008 58.9963 36.3904 58.6891C36.416 58.6123 36.4416 58.5355 36.4544 58.4587L36.5184 58.2283C36.5568 58.0747 36.5952 57.9211 36.6208 57.7547C36.6592 57.6011 36.6848 57.4347 36.7104 57.2811C36.736 57.1275 36.7488 56.9611 36.7744 56.8075L36.7872 56.7051L36.8512 56.6539C36.9152 56.5899 37.0176 56.5259 37.1328 56.5259C37.248 56.5131 37.3376 56.5515 37.4016 56.5899C37.5296 56.6667 37.6192 56.7435 37.6832 56.8331C37.824 56.9995 37.9264 57.1659 38.0288 57.3451C38.2208 57.6907 38.3744 58.0363 38.528 58.3947C38.6688 58.7531 38.8096 59.1115 38.9248 59.4699C39.04 59.8283 39.1552 60.1995 39.232 60.5835C39.2448 60.6475 39.2064 60.7115 39.1424 60.7243C39.0784 60.7371 39.0144 60.6987 39.0016 60.6347C38.8992 60.2763 38.7712 59.9307 38.6304 59.5723C38.4896 59.2267 38.336 58.8811 38.1824 58.5483C38.016 58.2155 37.8496 57.8827 37.6448 57.5755C37.5424 57.4219 37.44 57.2811 37.3248 57.1659C37.2736 57.1147 37.2096 57.0635 37.1712 57.0507C37.1456 57.0507 37.1584 57.0379 37.1712 57.0507C37.184 57.0507 37.2096 57.0379 37.1968 57.0379L37.2736 56.8843C37.248 57.0507 37.2352 57.2171 37.2096 57.3835C37.184 57.5499 37.1584 57.7163 37.12 57.8827C37.0944 58.0491 37.0432 58.2155 37.0048 58.3691L36.9408 58.6123C36.9152 58.6891 36.9024 58.7787 36.8768 58.8555C36.7872 59.1755 36.672 59.4955 36.5568 59.8027C36.4928 59.9563 36.4288 60.1099 36.3648 60.2635C36.3008 60.4171 36.224 60.5707 36.1472 60.7243C36.0832 60.8523 35.9296 60.9035 35.8016 60.8267C35.6736 60.7499 35.6352 60.5963 35.6992 60.4683Z" fill="#D1D1D1"/>
<path d="M35.8912 58.8028L39.0912 58.47C39.2064 58.4572 39.3088 58.5468 39.3216 58.662C39.3344 58.7772 39.2576 58.8796 39.1424 58.8924L35.9424 59.3148C35.8016 59.3276 35.6736 59.238 35.6608 59.0972C35.648 58.9564 35.7504 58.8284 35.8912 58.8028Z" fill="#D1D1D1"/>
<path d="M106.726 67.6078H105.318C105.101 67.6078 104.934 67.4414 104.934 67.2238C104.934 67.0062 105.101 66.8398 105.318 66.8398H106.726C106.944 66.8398 107.11 67.0062 107.11 67.2238C107.11 67.4286 106.944 67.6078 106.726 67.6078Z" fill="#8BBF98"/>
<path d="M105.715 68.7993H104.179C103.962 68.7993 103.795 68.6329 103.795 68.4153C103.795 68.1977 103.962 68.0312 104.179 68.0312H105.715C105.933 68.0312 106.099 68.1977 106.099 68.4153C106.099 68.6201 105.933 68.7993 105.715 68.7993Z" fill="#8BBF98"/>
<path opacity="0.74" d="M104.499 70.2094H99.8912C99.6736 70.2094 99.5072 70.043 99.5072 69.8254C99.5072 69.6078 99.6736 69.4414 99.8912 69.4414H104.499C104.717 69.4414 104.883 69.6078 104.883 69.8254C104.883 70.043 104.717 70.2094 104.499 70.2094Z" fill="#8BBF98"/>
<path opacity="0.23" d="M36.032 87.9985H33.088C32.8704 87.9985 32.704 87.8321 32.704 87.6145C32.704 87.3969 32.8704 87.2305 33.088 87.2305H36.032C36.2496 87.2305 36.416 87.3969 36.416 87.6145C36.416 87.8193 36.2496 87.9985 36.032 87.9985Z" fill="#EA1B53"/>
<path opacity="0.23" d="M38.9376 87.9985H38.08C37.8624 87.9985 37.696 87.8321 37.696 87.6145C37.696 87.3969 37.8624 87.2305 38.08 87.2305H38.9376C39.1552 87.2305 39.3216 87.3969 39.3216 87.6145C39.3216 87.8193 39.1552 87.9985 38.9376 87.9985Z" fill="#EA1B53"/>
<path opacity="0.23" d="M45.312 88.9594H41.8816C41.664 88.9594 41.4976 88.793 41.4976 88.5754C41.4976 88.3578 41.664 88.1914 41.8816 88.1914H45.312C45.5296 88.1914 45.696 88.3578 45.696 88.5754C45.696 88.7802 45.5296 88.9594 45.312 88.9594Z" fill="#EA1B53"/>
<path opacity="0.23" d="M43.9296 88.9594H43.264C43.0464 88.9594 42.88 88.793 42.88 88.5754C42.88 88.3578 43.0464 88.1914 43.264 88.1914H43.9296C44.1472 88.1914 44.3136 88.3578 44.3136 88.5754C44.3136 88.7802 44.1472 88.9594 43.9296 88.9594Z" fill="#EA1B53"/>
<path d="M102.067 68.7993H101.402C101.184 68.7993 101.018 68.6329 101.018 68.4153C101.018 68.1977 101.184 68.0312 101.402 68.0312H102.067C102.285 68.0312 102.451 68.1977 102.451 68.4153C102.451 68.6201 102.285 68.7993 102.067 68.7993Z" fill="#8BBF98"/>
<path d="M103.232 67.6078H100.032C99.8144 67.6078 99.648 67.4414 99.648 67.2238C99.648 67.0062 99.8144 66.8398 100.032 66.8398H103.232C103.45 66.8398 103.616 67.0062 103.616 67.2238C103.616 67.4286 103.45 67.6078 103.232 67.6078Z" fill="#8BBF98"/>
<path opacity="0.18" d="M60.4288 75.5094H57.7664C57.6512 75.5094 57.5488 75.4198 57.5488 75.2918C57.5488 75.1766 57.6384 75.0742 57.7664 75.0742H60.4288C60.544 75.0742 60.6464 75.1638 60.6464 75.2918C60.6336 75.4198 60.544 75.5094 60.4288 75.5094Z" fill="#63916E"/>
<path opacity="0.18" d="M62.464 75.5094H61.248C61.1328 75.5094 61.0304 75.4198 61.0304 75.2918C61.0304 75.1766 61.12 75.0742 61.248 75.0742H62.464C62.5792 75.0742 62.6816 75.1638 62.6816 75.2918C62.6688 75.4198 62.5792 75.5094 62.464 75.5094Z" fill="#63916E"/>
<path opacity="0.18" d="M64.1152 76.2516H61.4912C61.376 76.2516 61.2736 76.162 61.2736 76.034C61.2736 75.9188 61.3632 75.8164 61.4912 75.8164H64.1152C64.2304 75.8164 64.3328 75.906 64.3328 76.034C64.32 76.1492 64.2304 76.2516 64.1152 76.2516Z" fill="#63916E"/>
<path opacity="0.18" d="M68.7872 76.2516H68.0064C67.8912 76.2516 67.7888 76.162 67.7888 76.034C67.7888 75.9188 67.8784 75.8164 68.0064 75.8164H68.7872C68.9024 75.8164 69.0048 75.906 69.0048 76.034C68.992 76.1492 68.9024 76.2516 68.7872 76.2516Z" fill="#63916E"/>
<path opacity="0.18" d="M69.568 75.6344H68.7872C68.672 75.6344 68.5696 75.5448 68.5696 75.4168C68.5696 75.3016 68.6592 75.1992 68.7872 75.1992H69.568C69.6832 75.1992 69.7856 75.2888 69.7856 75.4168C69.7856 75.532 69.696 75.6344 69.568 75.6344Z" fill="#63916E"/>
<path opacity="0.26" d="M77.7728 76.2516H74.7648C74.6496 76.2516 74.5472 76.162 74.5472 76.034C74.5472 75.9188 74.6368 75.8164 74.7648 75.8164H77.7728C77.888 75.8164 77.9904 75.906 77.9904 76.034C77.9776 76.1492 77.888 76.2516 77.7728 76.2516Z" fill="#8BBF98"/>
<path opacity="0.26" d="M82.0608 76.2516H81.28C81.1648 76.2516 81.0624 76.162 81.0624 76.034C81.0624 75.9188 81.152 75.8164 81.28 75.8164H82.0608C82.176 75.8164 82.2784 75.906 82.2784 76.034C82.2656 76.1492 82.176 76.2516 82.0608 76.2516Z" fill="#8BBF98"/>
<path opacity="0.26" d="M78.592 75.5172H76.9024C76.7872 75.5172 76.6848 75.4276 76.6848 75.2996C76.6848 75.1844 76.7744 75.082 76.9024 75.082H78.592C78.7072 75.082 78.8096 75.1716 78.8096 75.2996C78.8096 75.4276 78.72 75.5172 78.592 75.5172Z" fill="#8BBF98"/>
</svg>
