<svg width="30" height="30" viewBox="0 0 30 30" fill="none" xmlns="http://www.w3.org/2000/svg">
<path d="M25 15C25 20.523 20.523 25 15 25C9.477 25 5 20.523 5 15C5 9.477 9.477 5 15 5C20.523 5 25 9.477 25 15ZM15.358 12.382C14.386 12.7867 12.4423 13.6243 9.527 14.895C9.053 15.083 8.805 15.267 8.783 15.447C8.745 15.751 9.126 15.871 9.645 16.034L9.863 16.104C10.373 16.27 11.061 16.464 11.418 16.472C11.742 16.4787 12.1033 16.3453 12.502 16.072C15.226 14.232 16.632 13.3023 16.72 13.283C16.783 13.269 16.869 13.251 16.927 13.303C16.986 13.355 16.98 13.453 16.974 13.48C16.936 13.641 15.44 15.032 14.666 15.751C14.4367 15.967 14.209 16.1847 13.983 16.404C13.509 16.861 13.153 17.204 14.003 17.764C14.864 18.332 15.733 18.898 16.573 19.497C16.987 19.793 17.359 20.057 17.819 20.016C18.086 19.991 18.362 19.74 18.502 18.99C18.834 17.22 19.485 13.382 19.635 11.8C19.6437 11.6688 19.638 11.537 19.618 11.407C19.6062 11.3024 19.5555 11.206 19.476 11.137C19.356 11.039 19.171 11.019 19.089 11.02C18.713 11.027 18.136 11.227 15.359 12.382" fill="white"/>
<circle cx="15" cy="15" r="14.5" stroke="white"/>
</svg>
