<svg width="30" height="30" viewBox="0 0 30 30" fill="none" xmlns="http://www.w3.org/2000/svg">
<path d="M9.28571 7.14453C8.025 7.14453 7 8.16953 7 9.43025V20.8588C7 22.1195 8.025 23.1445 9.28571 23.1445H20.7143C21.975 23.1445 23 22.1195 23 20.8588V9.43025C23 8.16953 21.975 7.14453 20.7143 7.14453H9.28571ZM19.8964 10.1445L16.1893 14.3802L20.55 20.1445H17.1357L14.4643 16.6481L11.4036 20.1445H9.70714L13.6714 15.6124L9.48929 10.1445H12.9893L15.4071 13.341L18.2 10.1445H19.8964ZM18.5464 19.1302L12.4786 11.1052H11.4679L17.6036 19.1302H18.5429H18.5464Z" fill="white"/>
<circle cx="15" cy="15" r="14.5" stroke="white"/>
</svg>
